<?xml version="1.0" encoding="UTF-8" standalone="no"?>
<svg
   xmlns:dc="http://purl.org/dc/elements/1.1/"
   xmlns:cc="http://creativecommons.org/ns#"
   xmlns:rdf="http://www.w3.org/1999/02/22-rdf-syntax-ns#"
   xmlns:svg="http://www.w3.org/2000/svg"
   xmlns="http://www.w3.org/2000/svg"
   version="1.1"
   id="svg2"
   viewBox="0 0 1052.3622 744.09448"
   height="210mm"
   width="297mm">
  <defs
     id="defs4" />
  <metadata
     id="metadata7">
    <rdf:RDF>
      <cc:Work
         rdf:about="">
        <dc:format>image/svg+xml</dc:format>
        <dc:type
           rdf:resource="http://purl.org/dc/dcmitype/StillImage" />
        <dc:title></dc:title>
      </cc:Work>
    </rdf:RDF>
  </metadata>
  <g
     transform="translate(0,-308.26772)"
     id="layer1">
    <flowRoot
       transform="matrix(1.3864404,0,0,1.4774866,145.35735,-7.94076)"
       style="font-style:normal;font-weight:normal;font-size:40px;line-height:125%;font-family:sans-serif;letter-spacing:0px;word-spacing:0px;fill:#000000;fill-opacity:1;stroke:none;stroke-width:1px;stroke-linecap:butt;stroke-linejoin:miter;stroke-opacity:1"
       id="flowRoot4199"
       xml:space="preserve"><flowRegion
         id="flowRegion4201"><rect
           y="378.79077"
           x="-64.285713"
           height="267.85715"
           width="843.57141"
           id="rect4203" /></flowRegion><flowPara
         style="font-style:normal;font-variant:normal;font-weight:bold;font-stretch:normal;font-size:112.5px;font-family:sans-serif;-inkscape-font-specification:'sans-serif Bold';letter-spacing:-2.77999878px"
         id="flowPara4205">HOT     CAT</flowPara></flowRoot>  </g>
  <g
     transform="translate(0,-308.26772)"
     id="layer2">
    <path
       id="path4209"
       d="m 383.72828,664.47825 -3.4661,-0.65259 -0.28557,-9.82986 -0.28559,-9.82986 7.21778,0.8594 c 12.38737,1.47494 29.25094,0.67863 35.68934,-1.68527 3.13188,-1.14989 5.68775,-1.7601 5.67972,-1.35604 -0.008,0.40408 -0.81356,3.46178 -1.79009,6.7949 -1.17752,4.01918 -2.1073,5.70664 -2.7607,5.01035 -0.65338,-0.6963 -2.13509,-0.13283 -4.39938,1.67282 -9.59699,7.6534 -23.77086,11.24316 -35.59941,9.01615 z"
       style="fill:#ffffff;fill-opacity:1" />
    <g
       transform="matrix(1.3864404,0,0,1.4774866,23.548641,-243.28326)"
       id="g4223">
      <path
         style="fill:#ff0000;fill-opacity:1;fill-rule:nonzero;stroke:#ff0000;stroke-opacity:1"
         d="m 332.35826,701.66467 c -2.63444,-0.28598 -4.14747,-0.80429 -4.95441,-1.69724 -0.481,-0.53227 -0.5733,-0.78896 -0.47605,-1.324 0.1133,-0.62355 0.0574,-0.70276 -0.92248,-1.30834 -1.44093,-0.89049 -1.6272,-1.266 -1.55317,-3.13099 0.0588,-1.48012 0.10971,-1.62575 0.93373,-2.67054 0.95745,-1.21397 2.23956,-2.03862 4.19703,-2.69952 1.69679,-0.57291 5.7052,-0.61814 7.30185,-0.0824 l 1.0403,0.34905 1.57434,-1.28245 c 2.71205,-2.20922 4.62969,-3.19736 8.67427,-4.46973 0.66932,-0.21057 1.42139,-0.56848 1.67127,-0.79536 0.24986,-0.22689 1.14267,-1.6557 1.98402,-3.17514 0.84138,-1.51945 2.08786,-3.63286 2.76998,-4.69648 0.68214,-1.06361 1.47996,-2.34823 1.77295,-2.85471 0.99182,-1.71459 2.61364,-4.28937 2.90022,-4.60438 0.15334,-0.16858 1.13932,-1.64242 1.54009,-2.30219 0.65094,-1.07157 1.94132,-3.51275 1.94132,-3.67264 0,-0.10727 -0.15814,-0.19504 -0.35145,-0.19504 -0.19329,0 -1.23376,-0.42043 -2.31213,-0.93428 l -1.96066,-0.93424 -2.63245,0.288 c -2.46287,0.26946 -2.68025,0.32667 -3.37485,0.88822 -0.40835,0.33011 -1.11205,1.05639 -1.56379,1.61395 -1.82732,2.25524 -10.45283,8.71062 -14.71373,11.01182 -0.83886,0.45304 -2.02925,1.10479 -2.6453,1.44833 -0.61606,0.34352 -1.98012,0.90999 -3.03127,1.25883 -1.72524,0.5725 -3.14786,1.38176 -3.14786,1.79069 0,0.32564 -3.07801,3.43439 -4.18162,4.22341 -2.71042,1.93777 -5.5755,3.10894 -7.94956,3.24954 -1.34336,0.0795 -1.34744,0.0815 -2.31048,1.12982 -1.64656,1.79221 -3.6158,2.95115 -7.23812,4.25974 -1.41228,0.51018 -5.70362,1.5078 -7.19027,1.67153 -2.85017,0.3139 -7.32438,-0.1187 -9.09309,-0.87917 -0.92863,-0.39926 -1.31739,-1.22107 -1.21577,-2.57001 0.10176,-1.3509 0.0589,-1.38438 -2.21965,-1.73408 -3.16807,-0.4862 -5.2661,-1.63899 -5.57005,-3.06053 -0.0838,-0.39195 -0.24127,-0.85816 -0.34993,-1.03603 -0.22561,-0.36931 0.12187,-1.54843 0.73403,-2.49087 0.49546,-0.76278 0.49127,-0.87778 -0.0486,-1.33409 -1.24889,-1.05566 -2.60941,-3.81658 -2.60941,-5.29528 0,-0.92556 1.12825,-2.61382 2.29048,-3.42739 2.1614,-1.51298 4.94286,-1.8983 8.42326,-1.16688 2.27248,0.47757 4.8921,1.59774 6.24885,2.67207 0.4206,0.33304 0.86964,0.57072 0.99786,0.52815 0.12822,-0.0426 1.19179,-0.62017 2.3635,-1.28358 1.1717,-0.66342 2.48033,-1.30383 2.90808,-1.42315 0.73832,-0.20598 0.77173,-0.25086 0.66017,-0.88745 -0.60084,-3.42905 -0.69477,-13.45882 -0.15629,-16.69375 0.11802,-0.70907 0.282,-2.38111 0.36439,-3.71565 l 0.14981,-2.42641 -0.68636,-0.35281 c -0.37748,-0.19406 -1.39703,-0.45917 -2.26567,-0.58916 -0.86861,-0.12997 -2.2927,-0.47473 -3.16465,-0.76613 -0.87194,-0.2914 -1.7312,-0.52982 -1.90947,-0.52982 -0.17826,0 -0.49437,-0.0747 -0.70247,-0.16581 -0.20807,-0.0912 -0.9546,-0.31912 -1.65893,-0.50648 -1.42923,-0.38022 -2.07227,-0.68171 -4.16364,-1.95221 -0.79206,-0.48115 -1.50802,-0.87483 -1.59105,-0.87483 -0.083,0 -0.72601,-0.514 -1.42884,-1.1422 -3.91397,-3.49841 -5.71678,-7.65233 -5.96849,-13.75226 -0.13712,-3.3229 0.13003,-4.86521 1.15258,-6.65404 0.37637,-0.65844 0.75134,-1.42845 0.83325,-1.71114 0.14784,-0.51025 0.14449,-0.5121 -0.45664,-0.25278 -1.34342,0.57953 -7.39022,2.35475 -8.53401,2.50542 -0.67256,0.0886 -2.18393,0.29965 -3.3586,0.46901 -1.966,0.28342 -2.44229,0.28543 -5.99189,0.0252 -3.65771,-0.2681 -4.06915,-0.33926 -7.99599,-1.38314 -5.37948,-1.43006 -6.69739,-1.81568 -8.27971,-2.42265 -0.71903,-0.2758 -2.04269,-0.77149 -2.94148,-1.10153 -0.89878,-0.33002 -2.12439,-0.83142 -2.72359,-1.11421 -1.15946,-0.54724 -3.46969,-1.35249 -6.31872,-2.20245 -5.33112,-1.59049 -14.25141,-1.70093 -21.99797,-0.27231 -2.1221,0.39135 -2.93145,0.66942 -6.87208,2.36102 -5.77787,2.48025 -7.75353,3.37402 -8.82442,3.99215 -0.47936,0.27666 -1.18086,0.63705 -1.55889,0.80084 -0.37804,0.16379 -1.50657,0.8592 -2.50785,1.54534 -3.10462,2.12752 -6.38885,4.10227 -6.8225,4.10227 -0.0686,0 -0.73515,0.316 -1.4812,0.70224 -3.04258,1.57516 -3.62169,1.83133 -5.61607,2.48425 -2.06335,0.6755 -3.52834,0.85132 -4.29542,0.51557 -0.20809,-0.0911 -0.85414,-0.36042 -1.43567,-0.59856 -1.40567,-0.57561 -3.28156,-2.33301 -3.84213,-3.59944 -0.77114,-1.74217 -0.53339,-4.40141 0.58964,-6.59481 1.76776,-3.45264 7.47188,-7.9994 15.9678,-12.72797 5.21871,-2.90457 14.16213,-6.33992 20.8072,-7.99248 8.31851,-2.06872 12.53048,-2.7619 16.7823,-2.7619 4.4771,0 7.91998,0.31513 11.43409,1.04654 4.24029,0.88259 13.25807,3.23088 14.04937,3.65858 0.64931,0.35095 3.96412,1.10182 9.3694,2.12231 l 4.78942,0.90423 6.21388,0.10424 c 4.85144,0.0814 6.85883,0.0416 9.15536,-0.18147 3.36051,-0.32641 6.46449,-0.90726 7.73499,-1.44748 0.47936,-0.20383 1.1657,-0.43504 1.52521,-0.51383 3.24479,-0.71111 5.73377,-1.60379 6.44522,-2.31161 0.1894,-0.18844 0.51568,-0.75701 0.72506,-1.26349 0.20937,-0.50649 0.46729,-1.08663 0.57316,-1.28923 3.23879,-6.19785 4.72753,-8.27649 7.88879,-11.01464 2.4489,-2.12113 3.79713,-2.87719 7.13699,-4.00224 1.6656,-0.56109 4.55715,-0.69445 5.88295,-0.27133 0.53926,0.1721 1.25223,0.35615 1.58437,0.40901 0.33215,0.0529 1.08632,0.4627 1.67596,0.9108 1.01849,0.77401 3.22481,3.0949 3.78304,3.97942 0.14296,0.22652 0.60219,0.89415 1.02049,1.4836 0.86887,1.22436 0.581,1.18693 4.13783,0.53798 4.36443,-0.7963 6.3274,-1.01611 9.15125,-1.02472 2.23899,-0.007 5.34093,0.2663 7.08132,0.62347 0.5992,0.12298 1.37412,0.23289 1.7221,0.24425 0.67817,0.0222 0.74118,-0.0854 1.98383,-3.38656 0.51597,-1.37063 3.51038,-6.54423 4.89543,-8.45797 1.97861,-2.73391 4.59891,-5.97849 5.41886,-6.70992 1.73719,-1.54962 4.85893,-3.60161 6.05436,-3.97967 1.56966,-0.49642 3.56669,-0.71616 5.21592,-0.57392 4.1179,0.35516 7.73047,4.74717 10.2377,12.44656 0.54129,1.6623 0.81036,4.36122 0.80779,8.10371 -0.002,3.20209 -0.0777,4.0205 -0.57793,6.26196 -0.31649,1.41815 -0.62719,2.7169 -0.69047,2.8861 -0.0933,0.24952 0.12338,0.34588 1.14699,0.5101 1.51706,0.24338 6.33675,1.22489 6.8726,1.39956 0.29997,0.0978 5.33823,1.7236 0.38131,-0.33098 -0.62698,-0.25988 1.3947,-2.31859 2.95822,-3.6659 l 1.23433,-1.06367 -0.95099,-0.12854 c -0.61835,-0.0836 -1.1706,-0.31414 -1.57875,-0.65914 -0.55035,-0.46522 -0.61439,-0.63058 -0.51954,-1.34184 0.16032,-1.20217 1.61789,-3.55683 3.90712,-6.31174 3.5819,-4.31059 3.83457,-4.64701 3.97906,-5.29803 0.12438,-0.56051 0.0168,-0.78825 -0.86593,-1.83396 -1.68183,-1.99221 -2.76847,-2.42754 -6.71531,-2.69032 -3.47313,-0.23123 -3.93333,-0.32802 -4.02135,-0.8457 -0.0488,-0.28668 0.16261,-0.52902 0.76261,-0.87437 1.29808,-0.74718 5.09658,-1.92548 8.44817,-2.62066 1.68209,-0.34889 3.35248,-0.70875 3.712,-0.79968 1.38406,-0.35004 4.52789,-0.608 8.71548,-0.7151 l 4.35776,-0.11144 -0.73608,-0.33925 c -0.40483,-0.18657 -1.23824,-0.46439 -1.85203,-0.61736 -0.6138,-0.15295 -1.21404,-0.34326 -1.33388,-0.42288 -0.11983,-0.0796 -0.73518,-0.20355 -1.36745,-0.2754 -2.01001,-0.22845 -2.3657,-1.02952 -0.86588,-1.95003 2.33133,-1.43082 4.16163,-1.88881 9.53257,-2.38527 3.79387,-0.35069 9.09553,0.27989 13.18217,1.56786 3.86323,1.21757 6.32527,2.40978 8.3415,4.03924 3.64451,2.94544 5.62009,6.09802 6.58022,10.50047 0.38367,1.75927 0.43337,1.85363 1.29533,2.45884 1.34929,0.94741 2.82155,2.82094 3.52613,4.48729 0.55838,1.32059 0.62878,1.72956 0.62501,3.63121 -0.009,4.69462 -1.13019,8.81795 -3.40982,12.54366 -1.53744,2.51273 -1.58805,2.96252 -0.36191,3.21676 1.10289,0.22869 5.37463,2.45558 6.80849,3.5493 0.76907,0.58665 1.60248,1.07338 1.85205,1.08164 0.24951,0.008 1.33612,0.1617 2.41467,0.341 3.20739,0.53326 5.10618,1.87115 4.5509,3.20661 -0.23753,0.57132 -1.8811,1.53329 -3.41761,2.00032 l -1.07222,0.32591 0.14102,1.01535 c 0.0775,0.55845 0.25989,1.1068 0.40522,1.21857 0.14533,0.11178 0.95058,0.34029 1.78945,0.50781 1.90539,0.3805 3.14799,1.08793 3.57441,2.03497 l 0.32007,0.71085 -0.78498,0.60807 c -0.8755,0.67819 -2.59151,1.18408 -4.01644,1.18408 -0.84191,0 -0.95137,0.0513 -1.0804,0.50649 -0.33123,1.16845 -1.47382,4.58275 -1.89852,5.67331 -0.11826,0.30368 0.0444,0.49248 0.82485,0.9575 1.19855,0.71409 2.24062,1.90015 2.43367,2.76991 0.17635,0.79461 -0.32608,1.22901 -1.63816,1.41639 -0.78172,0.11163 -2.68935,-0.0845 -3.53978,-0.36394 -0.27533,-0.0905 -0.56197,0.1937 -1.24031,1.22978 -0.48524,0.7411 -1.40262,2.02755 -2.03867,2.85878 -0.63606,0.83124 -1.40157,1.85422 -1.70116,2.27332 -0.88649,1.24007 -6.18981,5.48643 -10.22448,8.18673 -3.75237,2.51137 -8.29463,4.40016 -12.91929,5.37222 -1.94088,0.40794 -2.74938,0.47381 -6.0531,0.49316 -2.09718,0.0123 -4.59743,-0.0759 -5.55613,-0.19596 -4.61414,-0.57787 -6.32791,-0.83804 -6.42933,-0.97602 -0.0609,-0.0828 -0.91106,-0.32321 -1.88938,-0.53435 -0.97834,-0.21115 -1.90907,-0.4261 -2.06828,-0.47772 -0.26621,-0.0862 -2.87856,1.62184 -4.42933,2.89614 -0.80097,0.65815 -4.17497,2.55271 -6.65763,3.73834 -1.01198,0.48329 -2.23218,1.1138 -2.71153,1.40113 -0.47935,0.28732 -1.64951,0.87651 -2.60034,1.3093 -1.5695,0.7144 -1.78346,0.88026 -2.32191,1.79988 -2.46453,4.20923 -8.20764,14.11097 -9.18682,15.83908 -0.66002,1.1649 -1.88548,3.31975 -2.7232,4.78854 -0.83772,1.4688 -1.64786,3.00207 -1.80025,3.40725 -0.15242,0.40519 -0.76104,1.60693 -1.35252,2.67054 -0.59149,1.06362 -1.30178,2.514 -1.57844,3.22307 -1.46463,3.75384 -2.45632,4.86899 -6.26051,7.03991 -4.4437,2.53589 -4.48666,2.55065 -9.76155,3.35535 -1.25829,0.19194 -3.4446,0.68726 -4.85845,1.1007 -3.05423,0.89312 -4.79072,0.99901 -6.01735,0.36689 -0.70914,-0.36543 -0.8011,-0.37037 -1.96096,-0.1053 -1.89259,0.43247 -2.79144,0.47014 -5.13892,0.21531 z m 13.88356,-2.18753 c 1.3182,-0.3972 2.35584,-0.93415 3.49429,-1.09277 4.07814,-0.56821 4.70432,-0.60485 5.79262,-1.07048 1.84817,-0.79074 5.46312,-3.04811 6.32462,-3.8594 0.94178,-0.88691 1.80133,-2.06212 2.78584,-4.36156 0.38475,-0.89864 1.35943,-2.55553 1.92825,-3.58152 0.56883,-1.02598 1.15895,-2.25173 1.31136,-2.65691 0.15241,-0.40519 1.09219,-1.88365 1.92989,-3.35245 0.83775,-1.4688 2.06201,-3.40446 2.72063,-4.56938 0.6586,-1.1649 2.56759,-4.84638 4.40066,-7.94666 1.83306,-3.10029 3.87034,-6.54153 4.24995,-7.31236 0.8942,-1.81565 -0.9458,-1.55404 0.54108,-2.14915 0.67724,-0.27104 4.26496,-1.7779 5.23923,-2.31048 0.97427,-0.53258 2.44768,-1.13182 3.1554,-1.46558 2.02818,-0.95643 5.12341,-2.74998 6.21796,-3.58424 2.82799,-2.15551 4.55946,-2.00392 4.95141,-2.00392 0.61505,0 4.69749,0.93442 4.82804,1.10509 0.1028,0.13434 2.88474,0.53695 6.53663,0.94596 0.89878,0.10065 3.18274,0.17906 5.07543,0.17422 4.58777,-0.0118 6.66634,-0.42517 11.96632,-2.38014 1.52976,-0.56424 4.74913,-2.21524 5.6185,-2.88132 0.41943,-0.32136 1.64507,-1.15629 2.72361,-1.85544 1.07853,-0.69916 3.33533,-2.43307 5.01508,-3.85315 3.1694,-2.67946 4.5833,-4.31862 6.80584,-7.89008 0.50961,-0.81889 1.0242,-1.57143 1.14349,-1.67229 0.14401,-0.12171 0.29487,-1.7971 1.02465,-1.57528 2.07313,0.63016 3.28794,1.24973 3.28794,0.36047 0,-0.64337 -0.39202,-0.79175 -1.60076,-1.42688 -0.59132,-0.31071 -1.82059,-1.10693 -1.82059,-1.2671 0,-0.16017 0.21901,-1.20038 0.44707,-1.70883 0.51612,-1.15056 0.73737,-3.49896 2.07087,-4.47094 l 0.22364,-0.66669 1.54593,-1.06291 c 2.12591,-1.46171 3.45359,-0.38992 3.03028,-1.33107 -0.3125,-0.69478 -0.87522,-0.76439 -2.62073,-1.10181 -2.29876,-0.44432 -3.17693,-1.93949 -3.57508,-4.18365 -0.12276,-0.69208 1.30802,-0.72901 1.75796,-0.84685 1.14975,-0.30112 2.22503,-0.5658 2.67978,-0.99824 0.45042,-0.42826 -0.21599,-0.34242 -0.50297,-0.81159 0,0 -1.29756,-0.78513 -3.8755,-0.81758 -1.16117,-0.0145 -0.92156,-1.09293 -2.39898,-2.23991 -1.64152,-1.27436 -6.49864,-2.67243 -7.71811,-2.42061 -1.47219,0.304 -4.34308,-2.33833 -2.77198,-2.88482 2.93941,-1.02242 4.30143,-5.6423 4.95331,-8.97368 0.14864,-0.75972 0.2995,-2.96663 0.29563,-4.43542 -0.007,-2.40668 0.45687,-2.84589 -0.0409,-3.94528 -0.69119,-1.52632 -0.61592,-2.09802 -2.18757,-3.39891 -1.18414,-0.98016 -3.40357,-0.0718 -3.64649,-1.42001 -1.0318,-5.72644 -2.64516,-11.64182 -8.20939,-14.08835 -5.87767,-2.58435 -12.36165,-3.44926 -17.27354,-3.5113 -1.46335,-0.0184 -2.69675,0.22629 -3.236,0.29789 -1.59966,0.21245 -3.23412,0.66312 -3.23412,1.1778 0,0.14352 -0.3435,0.23938 0.41012,0.36469 2.942,0.48914 6.40415,2.47343 7.21252,3.22961 0.78236,0.73184 -2.26666,1.73252 -5.85039,1.59399 -3.28241,-0.1269 -8.56884,0.38885 -10.56336,0.54244 -0.41942,0.0941 -2.37635,0.0942 -3.75449,0.36854 -4.03925,0.804 -3.68872,1.12201 -3.96932,1.74014 -0.15476,0.34089 -2.65128,-0.42117 1.03638,-0.16963 3.80547,0.25957 3.87998,0.86636 5.54331,2.70959 1.11958,1.24067 1.21617,2.98 1.11512,3.9209 -0.11021,1.02621 -1.06058,1.58858 -2.54658,3.24828 -3.09179,3.45316 -5.26881,6.20278 -5.26881,7.20112 0,0.22212 -0.54247,0.32257 -0.33394,0.59158 0.32976,0.42542 -0.31632,0.13293 0.66804,0.13293 0.62244,0 3.85946,0.59675 4.06378,0.72337 0.3328,0.20624 -1.76806,1.296 -3.16485,2.45098 -1.50081,1.24103 -1.71698,1.52311 -1.71698,1.99101 0,0.12404 -0.84425,0.71878 -0.052,0.88702 1.65018,0.35039 3.41447,1.19574 4.20096,1.74395 0.45175,0.31488 2.859,1.87246 2.62343,2.11237 -0.15419,0.15704 -1.73501,0.66775 -2.0868,0.73306 -0.50481,0.0937 -2.30259,-0.78902 -2.94666,-1.21225 -2.16178,-1.421 -4.71436,-2.1939 -10.82719,-3.27832 -1.4316,-0.25396 -2.94126,1.25226 -2.99829,1.20407 -0.0571,-0.0481 -1.92846,-0.79062 -1.73803,-1.93945 0.54976,-3.31698 1.25288,-6.47698 1.25267,-9.82766 0,-5.76853 -0.16185,-8.33604 -2.72763,-12.78724 -1.63519,-2.83673 -2.13867,-4.61216 -3.88418,-5.53515 -1.18789,-0.62815 -0.8214,-1.19238 -2.9623,-1.18432 -2.93942,0.0111 -3.97938,0.49689 -6.64141,2.39349 -2.81685,2.0069 -3.02887,2.52197 -5.24578,5.35112 -3.28816,4.19628 -6.29491,9.22571 -7.2711,11.77961 -1.44699,3.78555 -2.46867,3.73512 -3.38283,3.44132 -2.23545,-0.71841 -4.33243,-0.95924 -8.42604,-0.96775 -3.88172,-0.008 -4.35047,0.0295 -7.5171,0.60115 -1.85749,0.33537 -3.76946,0.72477 -4.24881,0.86534 -0.47935,0.14058 -0.94574,0.66777 -1.03641,0.66924 -0.16963,0.003 -2.12297,-2.89398 -2.12297,-3.11263 0,-0.0671 -0.6372,-0.83296 -1.416,-1.70175 -2.20837,-2.46353 -3.35316,-3.18524 -6.21003,-3.91492 -2.01217,-0.51394 -6.31275,0.61467 -9.15127,2.40156 -1.33022,0.83741 -1.5361,1.00463 -3.3045,2.68439 -2.89039,2.74548 -4.09112,4.48063 -7.14564,10.32582 -0.10586,0.20259 -0.36241,0.78274 -0.57009,1.28923 -0.20767,0.50648 -0.58298,2.41203 -0.83399,2.62722 -0.75933,0.65091 -2.90608,0.16707 -6.12147,1.05523 -6.92836,1.91381 -9.52256,2.20652 -19.06512,2.1511 -6.44753,-0.0374 -7.01529,-0.0681 -9.36915,-0.50711 -4.65152,-0.86745 -8.59879,-1.72872 -10.02281,-2.18695 -1.6679,-0.53671 -4.98329,-1.491 -7.73499,-2.22639 -1.07854,-0.28825 -2.10806,-0.58763 -2.28782,-0.6653 -0.5915,-0.25556 -3.9859,-1.04036 -6.53661,-1.5113 -3.06957,-0.56673 -6.41165,-0.85452 -9.92364,-0.85452 -3.04536,0 -7.43158,0.64211 -12.08297,1.76886 -1.49796,0.36287 -3.557,0.8528 -4.57562,1.08873 -2.52899,0.58573 -4.44358,1.18647 -7.99023,2.50703 -1.65719,0.61705 -3.74844,1.39368 -4.64723,1.72584 -6.35806,2.34979 -14.89651,7.43712 -20.24687,12.06337 -1.19717,1.03515 -2.94697,3.13731 -3.55944,4.27618 -0.85302,1.58621 -1.18599,3.55789 -0.83997,4.97396 0.35072,1.4353 0.61655,1.86602 1.89152,3.06466 1.27635,1.19998 2.4267,1.70738 4.119,1.81681 1.87477,0.12125 3.59688,-0.46403 8.41854,-2.86115 5.2304,-2.60034 6.23386,-3.15664 8.42666,-4.67176 1.00769,-0.69628 2.14146,-1.39995 2.51949,-1.56374 0.37803,-0.16379 1.07954,-0.5242 1.55889,-0.8009 1.15596,-0.66729 3.66516,-1.8124 8.85991,-4.04332 3.4086,-1.46384 4.71659,-2.29877 6.27316,-2.59185 3.70231,-0.69707 6.01284,-0.56261 10.35973,-0.72133 4.09366,-0.14949 4.569,-0.13132 7.84394,0.29999 4.37947,0.57674 6.2524,1.11468 13.509,3.87995 1.31821,0.50235 2.89693,1.12818 3.50825,1.39076 1.29922,0.55801 3.46632,1.22494 6.51455,2.00488 1.19838,0.30661 2.90105,0.76188 3.78371,1.01173 3.72568,1.05457 10.3922,1.26218 14.15354,0.44078 0.99748,-0.21782 2.32114,-0.56737 2.94147,-0.77676 0.62033,-0.20939 1.71618,-0.54157 2.43521,-0.73818 1.62742,-0.445 3.71473,-1.95261 4.32431,-2.27474 0.4383,-0.29515 8.06114,-7.16233 3.01655,0.72771 0.21649,0.23138 -0.78499,0.89166 -2.12373,4.00492 -0.5675,1.31976 -1.04311,5.42309 -0.8652,7.02785 0.32562,2.93707 0.9101,5.57603 2.17598,7.61227 0.80053,1.28771 3.44202,3.75918 4.74194,4.59728 1.76822,1.14002 4.20472,1.72796 7.182,2.60053 4.87856,1.4298 6.92365,1.39386 7.35425,1.39386 0.21724,0 3.15796,0.23793 2.85587,0.4831 l -0.1519,2.7304 -0.33226,2.3961 c -0.0792,1.63084 -0.50146,3.24392 -0.62145,3.95301 -0.55558,3.28298 -1.1469,9.65592 -0.0676,15.73819 l 0.64873,3.25386 -1.6364,-0.0634 c -0.51554,-0.02 -2.2411,0.48844 -3.53479,1.19642 -1.29369,0.70796 -5.68786,3.12287 -5.84282,3.12287 -0.15499,0 0.70772,-2.21843 0.37209,-2.51882 -0.33563,-0.30039 -1.18821,-0.54246 -2.17195,-1.0402 -3.22935,-1.63403 -5.62078,-1.63557 -8.11529,-0.81854 -2.39308,0.78384 -2.91993,2.30526 -2.91993,3.98567 0,1.55184 1.1203,2.32367 2.49579,3.23823 0.65038,0.43244 0.51278,1.52331 -0.0141,2.17102 -0.76578,0.94127 -0.61935,1.04902 -0.47564,2.21128 0.26848,2.17122 2.58673,2.31467 4.87131,2.41854 1.05012,0.0478 1.68839,1.34622 1.74685,1.39563 0.0585,0.0494 -0.0531,0.42648 -0.24781,0.83791 -0.44585,0.94187 -0.44861,1.62897 -0.01,2.37294 0.66749,1.13097 3.10729,1.70151 7.25084,1.69554 2.58741,-0.004 3.00401,-0.0553 5.39377,-0.6672 3.17478,-0.813 5.21895,-1.52345 6.99159,-2.42998 1.37334,-0.70234 3.38593,-2.22509 4.34382,-3.28663 0.47357,-0.52485 -0.3689,-1.79917 0.84596,-1.87108 1.55856,-0.0922 4.4392,-0.68029 6.04822,-1.59662 0.58444,-0.33284 1.7578,-0.85584 2.52828,-1.46361 1.42715,-1.12582 3.48403,-3.44866 3.69353,-3.71167 1.00479,-1.26155 2.25273,-2.21433 3.79671,-2.72132 2.20386,-0.72367 6.02629,-2.38935 9.60064,-4.75432 3.59431,-2.3782 9.23711,-6.88877 10.38034,-8.30004 0.4626,-0.57107 1.05663,-1.18049 1.47852,-1.52169 0.74286,-0.60082 0.92828,-2.17673 3.69329,-1.48296 l 4.67656,-0.94477 2.71711,1.49656 c 0.99058,0.54562 2.3061,0.86479 2.63566,0.92976 0.39719,0.0783 1.15021,1.88126 1.15021,2.11577 0,0.60761 -3.60499,5.08094 -5.02042,6.95896 -0.39714,0.52692 -0.91656,1.57412 -0.91656,1.57412 -0.0554,0.0487 -0.37558,0.38121 -0.79502,0.96485 -0.41942,0.58363 -0.73018,1.24025 -0.73018,1.35871 0,0.11845 -0.62112,1.17373 -1.61798,2.71342 -0.99684,1.53969 -2.83211,4.35734 -3.64258,5.82614 -1.52938,2.77168 -1.78528,3.56719 -2.7214,3.74953 -0.30292,0.059 -2.64627,0.34309 -3.90011,0.79869 -2.41734,0.87841 -4.76364,2.1261 -6.67786,3.7885 -1.19771,1.04017 -1.94727,0.46418 -3.34697,-0.0347 -2.5113,-0.89483 -6.21458,0.13914 -8.80686,1.78274 -1.12269,0.71182 -0.91954,1.75796 -1.07927,2.90674 -0.18563,1.33497 -1.36518,2.23688 -0.0883,2.99763 0.94291,0.5618 3.65144,-0.18511 3.65144,0.64907 0,1.73701 -0.53805,2.5933 3.33799,2.89019 1.33393,0.10219 2.00673,-0.0357 3.67373,-0.37518 1.98417,-0.40399 2.82552,-0.54439 3.39168,-0.23081 1.46223,0.80984 1.1522,1.0124 4.5903,-0.0236 z m -5.76958,1.0637 c -0.37327,-0.31553 -2.71258,-0.43685 -1.47923,-1.14483 1.96689,-1.12902 4.35176,-1.35628 1.53601,-0.25582 -3.09345,1.20904 -3.02262,1.19429 -6.10084,1.26995 -3.36018,0.0826 -4.29776,0.54652 -4.9144,-0.51781 -0.68915,-1.18954 -1.10338,-2.92316 1.36105,-3.03794 1.18101,-0.055 3.06066,-0.0411 3.34507,-0.17 0.28441,-0.1289 1.64063,0.004 2.41957,-0.17445 l 1.38385,0.11474 -1.30733,0.12497 c -0.71901,0.0688 -2.63096,0.1249 -4.24879,0.12479 -2.50535,-1.7e-4 -4.72348,0.93152 -5.46415,0.61797 -2.30598,-0.9762 -1.40429,-5.59123 0.73081,-7.44405 0.89451,-0.77629 3.51119,-1.11311 4.87454,-1.37523 1.9764,-0.37996 4.52563,0.4872 5.57199,0.85673 0.91977,0.32485 -0.55055,0.5688 -1.15909,1.44062 -0.67326,0.96457 -0.71443,0.19404 0.24725,-0.87186 0.45862,-0.50835 1.47809,-0.38214 1.63166,-0.45626 0.15358,-0.0741 0.85251,-0.58826 1.55322,-1.14258 2.68796,-2.1264 6.45933,-3.81912 9.00896,-4.04359 l 1.19839,-0.10549 2.28783,-3.77851 c 1.25828,-2.07817 2.78966,-4.56454 3.40302,-5.52526 0.6134,-0.9607 1.68149,-2.65842 2.37358,-3.77267 0.69209,-1.11427 1.42826,-2.23313 1.63595,-2.48637 0.20769,-0.25325 0.89215,-1.33067 1.52108,-2.39428 1.12828,-1.90815 1.86432,-5.23461 2.78359,-6.12964 0.44494,-0.4332 0.63257,-0.46517 3.33524,-0.56833 3.54822,-0.13542 10.14955,-1.2209 13.09241,-2.0851 1.65789,-0.48684 0.26607,1.23059 0.44654,1.38312 0.28494,0.24087 -0.57172,1.87959 -2.9538,5.65028 -0.83194,1.31686 -2.19465,3.67891 -3.02825,5.249 -0.83362,1.57009 -2.72285,4.92668 -4.1983,7.4591 -1.47544,2.5324 -3.12993,5.49298 -3.6766,6.57905 -0.54671,1.08606 -1.23133,2.37068 -1.52144,2.85471 -0.29007,0.48404 -0.88692,1.6674 -1.32629,2.62972 -1.65416,3.62291 -2.60882,4.56808 -7.1254,7.05437 -2.46678,1.35792 -2.98243,1.51501 -6.72233,2.04776 -2.42696,0.34572 -3.66445,0.63026 -5.33823,1.22738 -1.58548,0.56564 -2.56521,0.79838 -3.59746,0.85464 -0.78021,0.0426 -1.49108,0.016 -1.57968,-0.0588 z m -1.25054,-1.44975 c 1.2583,-0.47575 2.57252,-0.98258 2.92046,-1.12633 0.79185,-0.32707 1.0997,-0.3289 1.41436,-0.008 0.35961,0.36625 0.1066,0.75302 -0.8649,1.32208 -1.81973,1.06597 -0.456,1.06575 2.6693,0 1.89933,-0.64794 3.65233,-1.00867 6.75622,-1.39028 2.22348,-0.27337 4.43477,-1.20937 7.39837,-3.13157 2.58932,-1.67948 3.3277,-2.54 4.87908,-5.68627 2.2854,-4.63482 3.66763,-7.20114 6.41063,-11.90203 1.53675,-2.63371 3.35583,-5.86598 4.04243,-7.18284 0.68656,-1.31685 1.99666,-3.5953 2.91127,-5.06321 1.83433,-2.94395 3.32039,-5.52686 3.17985,-5.52686 -0.0498,0 -0.75474,0.21375 -1.56639,0.475 -2.1948,0.70646 -7.41652,1.55645 -10.30346,1.67718 -2.42462,0.10139 -2.5359,0.12453 -3.30661,0.68769 -0.84736,0.61916 -2.31855,2.59665 -3.67204,4.93579 -0.45241,0.78187 -1.0141,1.65211 -1.24819,1.93384 -0.23404,0.28171 -1.26665,1.8885 -2.29461,3.5706 -1.02797,1.68211 -2.15191,3.46401 -2.49761,3.95977 -0.34571,0.49577 -1.53508,2.43465 -2.643,4.30863 -1.10797,1.87399 -2.14587,3.52125 -2.30645,3.66058 -0.1606,0.13935 -0.76644,0.27354 -1.3463,0.29822 -2.73772,0.11652 -8.09603,2.90687 -10.95439,5.70453 -1.22239,1.19643 -1.74323,1.57136 -2.18275,1.57136 -0.69036,0 -0.79888,-0.52804 -0.26858,-1.30688 l 0.47042,-0.69091 -0.70507,-0.13281 c -1.77012,-0.33348 -4.93381,-0.0994 -6.23396,0.46129 -1.15923,0.4999 -2.14955,1.61255 -2.43435,2.73504 -0.20553,0.81009 -0.18026,1.02002 0.19833,1.64729 0.52671,0.87272 0.73612,1.01482 1.99091,1.35102 1.11208,0.29796 3.22465,0.3342 6.48215,0.11121 l 2.23334,-0.1529 0,0.42923 c 0,0.35855 -0.22424,0.499 -1.36179,0.85292 -2.40146,0.74712 -3.5052,0.95304 -5.12037,0.95528 -1.74708,0.002 -1.91393,0.14584 -1.13862,0.97898 0.53241,0.57213 1.14955,0.66297 4.02564,0.59253 2.06231,-0.0505 2.30127,-0.0997 4.46668,-0.91837 z m -49.12903,-7.96314 c -1.75976,-0.49539 -1.98981,-1.65717 -1.98981,-2.61811 0,-0.54574 -0.73327,-2.79911 -0.35067,-3.04812 0.15673,-0.10201 3.08218,-0.10176 4.52024,-0.33431 2.41576,-0.39068 4.62451,-0.42777 4.646,-0.26766 -0.0484,-0.0361 -0.7131,0.07 -1.49204,0.15596 -7.3402,0.81144 -8.30626,0.83117 -10.61978,0.21676 -2.21098,-0.58719 -3.33235,-1.88967 -2.98283,-3.46453 0.17552,-0.79084 0.53762,-2.57488 1.06662,-2.57488 0.21669,0 1.66613,1.3038 2.82483,1.65834 2.04187,0.62477 4.0461,0.85284 4.0461,0.46044 0,-0.1013 0.34349,0.36378 0.0106,0.36378 -0.98531,0 -4.14868,-0.48984 -5.40846,-1.17103 -2.48672,-1.3446 -4.40707,-4.06718 -4.40707,-5.64836 0,-1.01733 0.92952,-2.63131 1.86142,-3.23212 0.89905,-0.57966 2.34401,-0.99444 3.4642,-0.99444 2.20116,0 5.01276,0.68586 7.09395,1.73051 1.1456,0.57503 1.19675,0.63332 1.16139,1.3233 -0.0204,0.39699 -0.10794,1.00804 -0.19467,1.35793 l -0.15768,0.63613 1.41799,-0.94194 c 1.94409,-1.2914 5.89244,-3.47016 6.7427,-3.72069 0.41121,-0.12117 2.69135,0.38249 2.80613,0.4795 0.10725,0.0907 0.10614,0.5827 0.53711,1.9037 1.19594,3.66578 2.79863,6.83483 5.37744,8.52586 0.73109,0.47941 3.03327,1.65986 3.25398,1.71909 1.57464,0.42243 -1.82879,4.27147 -7.4525,6.02349 -2.54281,0.79218 -6.0242,2.00674 -8.84514,2.17701 -0.9587,0.0579 -2.70373,-0.10808 -3.36284,-0.0674 -0.65911,0.0407 -1.41028,-0.21405 -1.59004,-0.26462 z m 6.4123,-0.98121 c 5.42182,-0.48263 9.34738,-1.85345 13.02284,-4.5476 l 1.35501,-0.99323 -1.07923,-0.81023 c -0.59359,-0.44561 -1.26769,-0.89546 -1.49802,-0.99965 -0.62706,-0.28367 -2.68001,-2.8523 -3.83986,-4.8044 -0.56308,-0.94765 -1.2571,-2.47378 -1.54235,-3.3914 -0.75765,-2.43752 -1.03172,-3.04968 -1.36533,-3.04968 -0.4306,0 -3.2835,1.53454 -5.75744,3.09685 -2.32214,1.46646 -3.04272,1.63424 -3.16534,0.73701 -0.0372,-0.27184 0.0925,-0.75587 0.28812,-1.07564 0.4511,-0.73734 0.34277,-0.95887 -0.69159,-1.41431 -0.45997,-0.20252 -1.15374,-0.51045 -1.54172,-0.68423 -2.3473,-1.05153 -6.04023,-1.34003 -7.70345,-0.6018 -1.07588,0.47755 -2.29196,1.86008 -2.51328,2.8573 -0.28629,1.28992 1.63338,3.57026 4.00802,4.76102 1.12316,0.5632 3.7161,1.33401 5.06209,1.50478 0.85986,0.10911 0.98049,0.18079 0.98049,0.58259 0,0.44092 -0.0593,0.46018 -1.57727,0.51223 -1.5237,0.0522 -2.82235,-0.18462 -5.03281,-0.91791 -0.67534,-0.22403 -0.75682,-0.21026 -1.1439,0.19359 -0.27384,0.28567 -0.41679,0.72184 -0.41679,1.27169 0,0.72953 0.10628,0.92236 0.82836,1.50297 1.6127,1.29677 4.26593,1.55605 9.73917,0.95175 1.91741,-0.21171 3.80485,-0.38508 4.19433,-0.38527 0.80363,0 0.93103,0.32457 0.31268,0.79758 -0.54185,0.41451 -1.25436,0.60306 -4.27092,1.13023 -1.42805,0.24957 -2.67307,0.5187 -2.7667,0.59807 -0.0936,0.0794 -0.31951,0.44652 -0.50193,0.81589 -0.31369,0.63512 -0.3052,0.70511 0.15638,1.28922 0.98034,1.24057 2.23443,1.44878 6.46044,1.07258 z m 15.09308,-7.11312 c -2.18453,-0.92158 -3.46939,-2.15209 -4.95626,-4.7466 -1.29214,-2.25474 -2.92748,-6.15743 -2.93248,-6.99839 -0.002,-0.29598 -0.14471,-1.20765 -0.31762,-2.02592 -0.50541,-2.39152 -0.83343,-7.65464 -0.66667,-10.69652 0.0833,-1.51945 0.44047,-4.62741 0.79368,-6.90657 1.39362,-8.99234 0.98531,-21.06494 -1.02589,-30.33108 -0.42284,-1.94813 -0.67623,-2.64355 -1.28094,-3.51572 -0.67117,-0.96796 -1.76007,-1.41698 -1.42775,-1.45585 0,0 0.69312,0.22322 0.92399,0.55821 0.76097,1.1043 2.23518,2.92372 2.60081,5.91144 0.19837,1.62075 0.51334,4.14317 0.69995,5.51067 0.41215,3.02018 0.63957,9.93167 0.54666,12.88493 l -0.068,2.15906 -2.41049,-0.19373 c -2.76911,-0.22255 -12.24431,-2.49808 -14.83265,-3.91571 -3.29712,-1.80581 -5.41043,-4.65398 -6.57023,-8.85491 -0.59987,-2.17278 -0.84215,-5.99466 -0.50393,-7.9491 0.60181,-3.4775 3.44502,-9.03708 5.77507,-11.29248 1.97121,-1.90804 1.91537,-1.1457 -0.78289,1.05026 -3.88128,3.15877 -7.11705,5.30524 -11.20988,5.95905 -6.39987,1.02234 -8.24119,1.38986 -11.55933,1.18156 -2.08112,-0.13064 -3.69753,-0.41325 -5.45848,-0.85069 -4.31367,-1.07153 -8.11595,-2.03818 -9.3377,-2.51055 -0.66007,-0.25521 -1.91557,-0.65534 -2.51269,-0.85569 -0.59712,-0.20035 -2.45754,-0.96015 -4.01543,-1.62146 -5.07096,-2.15264 -8.0132,-3.25784 -14.73804,-3.68938 -5.8524,-0.37555 -11.62304,0.0729 -16.81599,1.49777 -2.40066,0.6587 -5.6014,2.14374 -6.05517,2.48123 -0.18359,0.13652 -2.41021,0.94682 -3.52191,1.46579 -2.5314,1.18173 -6.84611,3.34096 -8.57238,4.49573 -0.71903,0.481 -1.91142,1.39879 -2.57053,1.73816 -0.6591,0.33937 -2.00181,1.14001 -3.14224,1.81269 -1.14044,0.67268 -3.72836,1.80582 -5.19632,2.45114 -2.45164,1.07772 -3.61002,1.26104 -5.08411,1.32397 -1.87967,0.0802 -3.42799,-0.70277 -4.75359,-1.79018 -1.10758,-0.90856 -2.26337,-2.59961 -2.19921,-4.77047 0.0401,-1.35919 0.58351,-2.66492 1.01329,-3.48639 1.89206,-3.61633 5.49079,-6.84896 13.1389,-11.1499 3.5565,-1.99999 9.39045,-4.98528 15.54753,-7.26955 2.80852,-1.04194 10.75941,-3.04894 12.7904,-3.43873 1.01862,-0.19549 3.20488,-0.72084 4.34334,-0.96655 4.73822,-1.02263 11.73523,-0.85437 17.36614,0.0934 2.2819,0.38412 7.67581,1.57367 13.68007,3.38578 1.73765,0.52444 3.84733,1.08449 4.92587,1.37853 2.87935,0.78497 8.81944,2.03429 12.31333,2.26952 1.67773,0.11296 3.58806,-0.0229 4.00751,0.0664 3.45323,0.15996 13.63704,-0.37366 17.10684,-1.43985 2.9653,-0.91119 5.8612,-1.64647 6.41918,-1.86231 0.94445,-0.36535 4.07361,0.15759 4.07361,0.587 0,0.1977 -1.25607,3.02259 -1.72163,4.26837 -0.46557,1.24578 -0.97999,2.74693 -1.06393,3.10146 -0.0839,0.35454 -0.66159,1.84294 -1.00638,2.80525 -0.80877,2.25737 -1.97867,7.14194 -2.01955,8.45529 -0.0174,0.55965 -1.41889,-0.48379 -1.29201,-0.37654 0.28479,0.24072 0.88188,0.56157 1.48985,-2.04891 1.12488,-4.83002 2.03659,-12.81877 3.55335,-16.13055 0.39435,-0.86103 1.09194,-2.43573 1.55022,-3.49934 2.37323,-5.50798 7.49855,-12.04509 11.21891,-14.3851 2.38959,-1.50299 5.97233,-2.50173 8.99927,-2.00897 5.17728,0.84282 3.71026,1.53491 5.81663,3.32466 2.14679,1.82409 2.14355,2.46443 3.49386,4.57757 3.39958,5.32003 4.468,8.82079 6.04625,18.42513 0.63521,3.86564 0.30739,14.34059 -0.17845,19.62157 -0.44627,4.85038 -1.07749,15.6284 -1.10721,19.69578 l 0.65584,3.40636 -1.1429,0.91832 c -0.23841,0.19156 -1.14358,0.44296 -1.46127,0.69912 -0.31771,0.25614 -2.89843,1.64287 -3.08063,1.60819 -0.18227,-0.0347 -0.26873,-1.65295 -0.66757,-2.15621 -1.52679,-1.92653 -3.82021,-2.35553 -6.88959,-1.72798 -1.70492,0.34859 -0.90997,-0.17345 -3.73671,2.79028 -0.1826,0.19145 -1.99837,0.29491 -2.4332,0.29491 -1.70716,0 -3.96298,2.25036 -4.75559,4.74409 -0.72109,2.26878 0.87903,7.20211 0.20326,6.85895 0,0 -0.85012,-1.14789 -0.83886,-2.55088 0.0144,-1.80153 0.0964,-3.00706 0.35697,-3.77445 0.86919,-2.56002 1.38366,-5.05776 3.23515,-4.94729 0.14979,0.009 2.89995,-0.93229 3.25912,-0.91965 0.90636,0.0319 3.26778,1.91554 3.88198,3.10265 0.42401,0.81951 1.30609,1.9425 1.28517,3.58416 -0.0266,2.08629 -0.88341,4.23179 -2.03287,6.32747 -1.03545,1.88776 -2.07661,1.59386 -1.05443,0.55933 1.3214,-1.33736 2.14096,-2.88653 2.5217,-4.76665 0.58985,-2.9128 0.46957,-3.48795 -1.22667,-5.86635 -0.50976,-0.71479 -1.19778,-1.40377 -1.62423,-1.62657 -0.94514,-0.49373 -1.65579,-1.84406 -0.78176,-2.86393 1.3788,-1.60886 3.58486,-1.46269 6.12401,-1.30799 1.86022,0.11335 3.10367,0.48754 4.01464,1.2081 1.13368,0.89673 1.31165,1.40262 1.40927,4.00499 0.13534,3.60762 0.13221,6.67116 -1.78549,10.0056 -0.52007,0.90432 -0.32975,0.94431 -0.32975,1.05997 0,0.11566 -1.57464,1.98907 -2.46917,2.32136 -1.87275,0.69568 -2.59368,1.40743 -2.80617,1.77679 -0.62923,1.0938 -0.82352,0.75067 -0.40238,1.48603 0.86504,1.51045 1.06579,1.67001 3.39503,1.02367 1.27237,-0.35309 1.23466,0.009 1.23466,-0.22161 0,-0.0501 1.81898,-0.55986 1.18982,-0.26222 -1.24826,0.59056 -3.60046,1.03112 -4.49914,0.84272 -1.04122,-0.21831 -1.54722,-0.79872 -1.54722,-1.77479 0,-0.71545 0.12219,-1.00002 0.64598,-1.50427 1.36655,-1.31563 2.08173,-3.40447 7.4574,-3.1414 2.99871,0.14675 2.33318,0.11803 -0.84577,0.0853 -1.63833,-0.0167 -2.59269,0.30148 -1.75731,-0.44852 0.16212,-0.14557 0.15443,-0.0414 -0.0648,-0.053 -0.21405,-0.0114 -0.15374,-0.16022 0.0442,-0.48373 0.43799,-0.71572 0.4985,-0.80171 1.11205,-1.58056 0.70765,-0.89829 0.62388,-3.84567 1.11068,-5.39736 0.3447,-1.09878 0.39412,-3.52369 0.14663,-4.63874 -0.11835,-0.53326 1.59212,-0.87005 2.45952,-1.54589 0.81142,-0.63221 1.17252,-0.77812 2.19237,-0.88582 1.8272,-0.19296 3.11614,-0.4777 4.05379,0.3554 0.4445,0.39499 0.52161,1.52295 0.64677,1.90386 0.51518,1.5681 2.14023,4.51648 1.20519,6.1377 -0.58089,1.0072 -2.88664,4.06829 -3.36399,4.1967 -0.74288,0.19986 -0.74976,0.0269 -0.95438,0.19072 -0.12821,0.10266 -0.77248,-0.53547 0.57043,-0.56543 1.21407,-0.0271 0.49757,1.21765 0.58668,1.29263 0.28149,0.23691 0.37328,1.79778 0.38671,3.67624 0.0367,5.11538 -5.55507,12.0896 -10.60264,15.14485 -2.10052,1.27143 -4.03672,2.04362 -5.7767,2.30385 -2.25507,0.33727 -1.94829,0.36995 -3.77994,-0.40279 z m 3.80438,-0.0675 c 0.89208,-0.12239 1.88504,-0.4455 2.94148,-0.95717 2.92496,-1.41666 3.93579,-2.12091 5.75869,-4.01221 2.59799,-2.69541 4.60006,-6.07944 5.53244,-9.3513 0.41835,-1.46797 0.46502,-1.97753 0.33214,-3.62538 -0.18689,-2.31779 -0.36213,-2.58013 -1.6639,-2.49088 -4.07002,0.27905 -4.60787,-0.44736 -1.25009,-1.68837 1.00039,-0.36975 1.98496,-0.71758 2.18793,-0.773 0.47042,-0.12841 2.23195,-2.01092 2.78376,-2.97496 0.64289,-1.12309 1.15877,-3.5187 1.02738,-4.77099 -0.13848,-1.32019 -0.96197,-2.43257 -2.17286,-2.93515 -1.20206,-0.4989 -2.79008,-0.27946 -3.83492,0.52991 l -0.78705,0.60967 -0.0258,2.3624 c -0.0207,1.8982 -0.12179,2.61573 -0.51419,3.65163 -0.78275,2.06647 -2.13137,4.67984 -2.82862,5.48125 -0.97887,1.12511 -0.7014,1.37103 1.63873,1.45232 1.56238,0.0543 1.92649,0.12575 2.18958,0.42989 0.66636,0.77031 0.35554,0.91658 -2.20497,1.03764 -1.31697,0.0622 -2.86614,0.24628 -3.44253,0.4089 -3.65251,1.03054 -5.50674,2.92626 -3.90894,3.99641 0.8598,0.57586 2.68492,0.3939 4.69137,-0.46771 1.76866,-0.75953 2.11762,-0.79498 2.11762,-0.21523 0,0.98132 -2.29828,1.9944 -5.50217,2.42535 -1.06901,0.14378 -2.54287,-0.40022 -3.20103,-1.18152 -0.71689,-0.85102 -0.78874,-1.75988 -0.23712,-3.00035 0.5395,-1.21329 1.32347,-1.81936 3.56403,-2.75517 l 1.46794,-0.61312 1.1932,-2.12202 c 0.66241,-1.178 1.45825,-2.9805 1.78895,-4.05185 0.52335,-1.69537 0.59233,-2.24462 0.56793,-4.5205 -0.0237,-2.20569 -0.0931,-2.69834 -0.46723,-3.31516 -0.80127,-1.3211 -2.11891,-2.00567 -4.27106,-2.21906 -2.07919,-0.20615 -3.85432,0.47917 -5.14636,1.98683 -0.66316,0.77383 -0.65716,1.17259 0.0204,1.35439 0.61163,0.16409 2.22493,2.04832 2.80641,3.27773 0.45896,0.97035 0.49481,1.25987 0.37651,3.03889 -0.21011,3.15859 -1.17345,5.34096 -3.13253,7.09618 -1.20531,1.0799 -1.75111,0.81563 -1.32571,-0.64192 0.12913,-0.44241 0.40348,-1.01159 0.60969,-1.26482 1.51822,-1.86444 2.1974,-5.97502 1.31378,-7.95127 -0.57569,-1.28748 -1.87387,-2.36255 -2.85288,-2.36255 -0.73177,0 -2.03379,0.40971 -2.46611,0.77604 -0.95309,0.80763 -1.93206,2.16601 -2.31371,3.21055 -0.36004,0.98529 -0.44183,1.71691 -0.44183,3.95234 l 0,2.74324 -0.62724,0 c -0.99131,0 -1.22244,-0.72415 -1.20515,-3.7756 0.0219,-3.8528 0.70773,-5.67411 2.9018,-7.70576 0.71438,-0.66149 1.56979,-1.04177 2.35148,-1.04539 0.77526,-0.004 0.8932,-0.0796 1.85333,-1.19431 1.66464,-1.93272 3.24104,-2.91874 5.3234,-3.32971 3.22434,-0.63634 5.89522,0.14703 7.40808,2.17278 l 0.53425,0.71533 0.6427,-0.45712 c 0.3535,-0.25143 0.82781,-0.5068 1.05405,-0.5675 0.36469,-0.0978 0.39827,-0.24795 0.29611,-1.32363 -0.17685,-1.86239 0.59323,-16.29739 1.24355,-23.30952 0.13519,-1.45767 0.12534,-2.38286 -0.0303,-2.85472 -0.15489,-0.46937 -0.16779,-1.54305 -0.0394,-3.27659 0.39092,-5.27658 0.12617,-10.35469 -0.76326,-14.64193 -0.1156,-0.55713 -0.3221,-1.71745 -0.45894,-2.57846 -0.62841,-3.95422 -2.56397,-9.01648 -4.82317,-12.61456 -1.07677,-1.71489 -3.45542,-4.10846 -5.05823,-5.09 -1.81731,-1.11288 -4.50902,-1.36409 -6.91702,-0.64554 -3.07672,0.9181 -5.87916,3.3533 -9.54673,8.29574 -1.49532,2.01508 -4.05552,6.77503 -4.46679,8.3047 -0.0817,0.30389 -0.37766,1.0498 -0.65767,1.65758 -0.77562,1.68345 -1.39174,3.29569 -2.11152,5.52526 -0.35973,1.11425 -0.83164,2.48176 -1.04871,3.03889 -0.50933,1.30725 -0.81276,2.22393 -1.18879,3.59141 -0.28519,1.03717 -0.39899,1.54146 -1.01155,4.48237 -0.34479,1.65533 -1.05276,3.12737 -1.57097,3.2664 -0.5253,0.14093 -0.69595,-0.005 -1.02342,-0.87125 -0.22257,-0.5892 -0.12969,-1.19574 0.7406,-4.83663 0.54729,-2.28962 1.23352,-4.80435 1.52498,-5.58829 0.29146,-0.78392 0.6346,-1.83972 0.76256,-2.3462 0.12795,-0.50649 0.58395,-1.85859 1.01332,-3.00468 0.42937,-1.14608 0.73115,-2.12564 0.67062,-2.17682 -0.0606,-0.0512 -0.2912,-0.005 -0.51259,0.10177 -0.22138,0.10713 -1.28496,0.477 -2.3635,0.82194 -1.07854,0.34494 -2.74131,0.88924 -3.69503,1.20956 -1.28991,0.43323 -2.43396,0.64933 -4.46669,0.84372 -3.13403,0.2997 -11.28959,0.68666 -11.5546,0.54822 -0.0976,-0.051 -1.14307,-0.17282 -2.3233,-0.27073 -3.98393,-0.3305 -5.83924,-0.54404 -8.68247,-0.99936 -6.29132,-1.00753 -8.11028,-1.44583 -15.07228,-3.63187 -2.92991,-0.91997 -7.45958,-2.08871 -9.22214,-2.37949 -5.08681,-0.83916 -6.10599,-0.93892 -9.58703,-0.93843 -3.68378,0 -6.58256,0.27461 -9.90233,0.93632 -0.96505,0.19235 -2.24488,0.40479 -2.84406,0.47213 -1.92644,0.21643 -8.11529,1.9604 -12.18814,3.43453 -6.32665,2.28988 -15.96552,6.69846 -17.00874,7.77941 -0.11985,0.12417 -1.05131,0.71605 -2.06993,1.3153 -1.01862,0.59925 -2.8371,1.91965 -4.04107,2.93423 -4.25722,3.58753 -5.49514,5.22667 -5.7026,7.55087 -0.2351,2.63409 0.60375,4.22568 2.67353,5.07263 1.5938,0.65217 3.31789,0.33837 6.30753,-1.148 2.98123,-1.48217 3.74579,-1.90393 7.32511,-4.04068 6.17022,-3.68343 13.7958,-7.67791 16.16308,-8.46664 0.62258,-0.20743 1.23026,-0.44166 1.3504,-0.52053 0.45629,-0.2995 5.98057,-1.67947 8.17132,-2.0412 6.15026,-1.01556 13.91392,-0.94208 20.50961,0.19407 2.48598,0.42823 6.51296,1.59815 8.12536,2.36058 1.4609,0.69081 5.10111,2.09078 8.079,3.10711 3.67498,1.25421 9.15597,2.41319 12.54708,2.65311 3.34294,0.23655 3.41988,0.22898 11.52946,-1.13225 4.2307,-0.71014 7.26971,-2.13336 11.00345,-5.15307 2.47774,-2.00392 3.15921,-2.24149 3.15921,-1.10137 0,0.39712 -0.36432,0.87578 -1.42862,1.87693 -1.52181,1.43152 -2.07624,2.23705 -3.65039,5.30364 -1.28313,2.49965 -1.82361,4.24438 -2.11752,6.83552 -0.23643,2.08451 -0.042,4.3792 0.46337,5.46686 0.1081,0.23266 0.19655,0.65353 0.19655,0.9352 0,0.80778 1.41844,3.6521 2.51886,5.05094 2.36283,3.00358 3.89763,3.93994 8.83008,5.38714 3.52642,1.03466 9.44311,2.27602 9.72252,2.03985 0.26805,-0.22659 0.16226,-10.9988 -0.12502,-12.73115 -0.15117,-0.91166 -0.35822,-2.56924 -0.4601,-3.68351 -0.41319,-4.51967 -1.03227,-7.14536 -2.13133,-9.03956 -0.58728,-1.01218 -0.54542,-1.55051 0.12058,-1.55051 1.02779,0 2.46511,2.13057 3.05445,4.52772 1.34886,5.48651 2.07511,12.75405 2.05052,20.52011 -0.0166,5.20625 -0.22439,7.6272 -1.05974,12.33975 -0.71086,4.01033 -0.7396,10.92069 -0.062,14.9182 0.12878,0.75971 0.32373,1.95148 0.43325,2.64836 0.41641,2.64962 3.19832,8.34068 4.89719,10.01833 0.92161,0.91011 2.37442,1.7966 3.53478,2.15687 1.01218,0.31428 1.15532,0.31891 2.81469,0.0913 z m 13.5786,-8.84443 c 0,-0.10533 -1.27187,0.81418 -1.04362,0.43603 0.39003,-0.64625 2.8744,-4.79748 3.41568,-6.72617 0.34331,-1.22326 0.30073,-3.75027 -0.0843,-4.99961 -0.17976,-0.58334 -0.32683,-1.16612 -0.32683,-1.29505 0,-0.12893 0.54824,-0.80863 1.21833,-1.51047 0.67009,-0.70182 -0.19676,-2.10071 0.015,-2.5059 0.24649,-0.47193 2.50283,-0.6076 3.44724,-1.2565 5.34891,-3.67526 8.7455,-6.65822 11.47598,-10.07856 2.09479,-2.62403 5.51302,-8.90675 5.96488,-10.96347 0.31117,-1.41634 0.52127,-0.0135 -0.70943,2.62868 -1.47098,3.158 -2.23493,4.86518 -4.18254,7.2715 -1.63049,2.0145 -4.26726,5.44226 -5.12844,5.82345 -0.58089,0.25712 -0.4002,-2.41878 -1.41288,-3.04713 -1.23009,-0.76328 -3.28611,-1.81709 -5.18048,-2.312 -0.93978,-0.24555 -2.9185,-0.28287 -5.00598,-0.8403 l -2.78933,-0.74485 0.057,-1.74216 c 0.0314,-0.95818 0.15165,-3.02677 0.26731,-4.59687 0.11568,-1.57009 0.31504,-4.59518 0.44299,-6.7224 0.12798,-2.12723 0.38181,-5.43061 0.56405,-7.34084 0.18224,-1.91024 0.28842,-3.56782 0.23593,-3.68351 -0.0525,-0.1157 -0.007,-2.07511 0.10114,-4.35429 0.20833,-4.39183 -0.68213,-9.47989 -1.40445,-13.10156 -0.8417,-4.22031 -2.32692,-10.12654 -2.91842,-11.60573 -0.88238,-2.2065 -2.48444,-3.32959 -1.45617,-3.70377 2.44059,-0.88809 7.50343,-1.76922 12.35159,-1.76065 3.95616,0.007 5.93969,0.23322 7.76561,0.6914 2.57464,0.64609 6.02841,2.69679 8.54777,4.15077 3.85596,2.22542 4.94029,3.3976 15.22711,3.58384 4.14379,0.075 7.63077,0.18686 7.74885,0.24852 0.11805,0.0617 0.4434,-1.14552 1.63418,-1.04181 2.81724,0.24532 7.46547,1.21485 9.6506,1.81147 2.08383,0.56897 7.11078,2.95629 7.31002,3.22515 0.35653,0.48111 -3.62883,1.61738 -4.61749,2.11098 -1.62679,0.81224 -3.20659,1.14906 -4.58688,1.19651 -5.45901,0.18767 -9.3086,0.40765 -12.78302,1.23832 -2.91247,0.69631 -5.01163,0.75781 -2.36411,0.27285 7.61863,-1.39549 14.80949,-2.19546 14.80949,-1.55877 0,0.12802 -0.82791,0.87993 -1.52285,1.53695 -1.4448,1.36593 -2.26916,2.47485 -3.20806,4.31544 l 1.3186,1.72944 -4.10972,1.21207 c -1.31553,0.3351 -3.54857,1.21911 -4.44736,1.52911 -9.55443,3.29539 -10.75736,4.11697 -10.95018,2.80512 -0.0136,-0.092 0.19989,0.22229 0.44419,0.28781 0.48612,0.13044 1.60155,-0.2011 5.35455,-1.59152 1.33184,-0.4934 2.5303,-0.89709 2.66331,-0.89709 0.13296,0 0.6611,-0.15858 1.17363,-0.35239 1.84273,-0.69681 6.16951,-2.04222 6.56719,-2.04206 0.43853,1.8e-4 2.8376,-0.39406 2.30209,1.60173 -0.14347,0.5347 -0.29592,0.96992 -0.21996,1.03414 0.076,0.0642 -1.89315,0.44082 -1.56308,0.30088 0.96111,-0.40715 0.9947,-0.41563 0.84698,-0.21357 -0.0773,0.10578 -0.0346,0.22223 0.0952,0.25877 0.15034,0.0423 0.032,0.52405 -0.32641,1.32905 -0.30923,0.69443 -0.7237,2.00852 -0.92102,2.92019 l -0.35877,1.6576 -0.65002,1.58301 c -0.56974,1.38745 -3.07492,0.88869 -6.93903,3.55612 -1.49799,0.85915 -3.23289,1.84891 -4.25152,2.43383 -1.96736,1.12973 -3.33275,1.71836 -3.1468,1.97267 0.2771,0.37901 -1.23224,0.45339 0.36167,-0.53201 5.71385,-3.53248 13.32185,-7.58842 14.23403,-7.58842 0.1568,0 0.24024,0.58877 0.24145,1.70362 0.003,2.55474 0.3837,5.7505 0.89075,7.47338 0.67266,2.28563 2.75108,5.58924 5.24825,8.34203 1.26549,1.39505 4.66948,4.28911 6.60552,5.616 1.63527,1.12074 4.91582,2.76305 6.92858,3.46855 1.08085,0.37887 3.63446,0.97898 3.63446,1.14133 0,0.36208 -4.43171,2.09453 -6.9679,3.67471 -3.7035,2.30752 -9.9062,5.19884 -13.44975,6.26949 -6.853,2.07057 -13.3236,3.24235 -17.5321,1.9999 -1.05951,-0.31279 -2.01077,-1.36816 -2.07431,-1.50813 -0.12577,-0.27708 -2.89122,-1.27637 -2.50622,-1.28291 0.30336,-0.005 4.04993,-1.39203 5.3768,-2.0541 2.07638,-1.03605 5.29518,-3.04424 7.35602,-4.94154 2.28308,-2.10188 6.39946,-6.33284 7.04631,-7.81243 0.21157,-0.48404 1.06131,-0.4083 1.4669,-0.8637 0.13262,-0.14745 -0.16316,0.92049 -0.30305,0.92049 -0.33824,0 -1.25678,0.2039 -3.08149,2.62488 -3.20373,4.2506 -8.72104,8.75601 -12.91231,10.54412 -4.08314,1.74201 -6.98448,2.43759 -10.17538,2.4395 -1.19635,0 -1.26994,0.0295 -2.00177,0.78349 -0.4179,0.4305 -1.49177,1.53679 -2.38643,2.45842 -1.43794,1.48131 -4.7165,4.1367 -9.59322,7.76984 -3.68576,2.74585 -10.71685,6.24853 -10.71685,5.27127 z m 4.03088,-1.79394 c 2.86189,-1.43132 4.89272,-2.669 6.9724,-4.24928 7.61759,-5.78832 7.22662,-5.45668 10.73373,-9.10551 1.35132,-1.40592 1.37461,-1.41975 2.39676,-1.42329 4.2804,-0.0149 9.69991,-1.64993 13.47758,-4.0662 2.99589,-1.91624 7.3531,-5.68984 8.91099,-7.71745 2.50112,-3.25518 2.95575,-3.81975 3.52353,-4.37544 0.3701,-0.36223 0.9061,-0.64709 1.35308,-0.7191 0.71279,-0.11483 0.7349,-0.10137 0.59668,0.36406 -0.34726,1.16946 -1.75282,3.36757 -3.7904,5.92763 -3.6815,4.62554 -8.43307,8.37663 -13.08071,10.32651 -1.1188,0.46938 -1.99542,0.88617 -1.94806,0.92619 0.0473,0.04 0.9607,0.33001 2.02967,0.64438 1.93466,0.56895 1.95967,0.57114 5.4298,0.47643 3.92265,-0.10705 7.11158,-0.644 11.10775,-1.87029 3.68027,-1.12938 9.51912,-3.85614 13.34671,-6.23294 2.0862,-1.29549 4.85137,-3.29282 4.85137,-3.50428 0,-0.0453 -0.66183,-0.30498 -1.47074,-0.57724 -1.6133,-0.54303 -5.26562,-2.36294 -6.80898,-3.39285 -3.01699,-2.01329 -7.39069,-6.12846 -9.04231,-8.50787 -2.90652,-4.18725 -3.80509,-7.21609 -3.81116,-12.8469 l -0.002,-1.72112 -0.92603,0.454 c -0.5093,0.2497 -1.58507,0.75806 -2.3906,1.12969 -0.80552,0.37165 -2.61942,1.34862 -4.03091,2.17108 -1.41148,0.82245 -3.00755,1.74742 -3.54682,2.05547 -0.53925,0.30805 -1.7958,1.08229 -2.79228,1.72054 -1.35783,0.86969 -1.98842,1.16045 -2.51661,1.16045 -0.82004,0 -1.22772,-0.27931 -1.22772,-0.84117 0,-0.50027 2.88348,-2.85951 4.59999,-3.76373 0.6725,-0.35425 2.58444,-1.42306 4.24881,-2.37515 1.66451,-0.95221 4.30048,-2.24436 5.85858,-2.87193 l 2.83253,-1.14083 0.49566,-2.19139 c 0.32336,-1.42973 0.41668,-2.21364 0.26845,-2.25539 -0.72575,-0.20449 -0.9274,-0.66226 -0.79991,-1.81618 0.0704,-0.63783 0.22576,-1.31393 0.3451,-1.50241 0.17867,-0.28223 -0.19473,-0.20645 -2.11608,0.4294 -1.28318,0.42465 -2.67624,0.87729 -3.09568,1.00587 -0.41942,0.12859 -1.1548,0.35407 -1.63416,0.5011 -0.47933,0.14701 -1.26373,0.42116 -1.7431,0.6092 -4.5215,1.7737 -6.56113,2.2794 -7.49296,1.85787 -0.7056,-0.31922 -0.56282,-0.86981 0.35717,-1.37725 0.44939,-0.24788 2.53292,-1.02993 4.6301,-1.7379 2.09716,-0.70795 4.45034,-1.53191 5.2293,-1.83103 1.15923,-0.44513 2.88479,-0.93887 6.89663,-1.9733 0.1381,-0.0356 0.46253,-0.54701 0.72094,-1.13645 0.25839,-0.58941 0.7092,-1.3807 1.00176,-1.75838 0.29255,-0.3777 0.53192,-0.75907 0.53192,-0.8475 0,-0.0885 0.58914,-0.72492 1.3092,-1.41438 0.72004,-0.68948 1.28382,-1.27171 1.25285,-1.29389 -0.031,-0.0222 -1.23295,0.0326 -2.67101,0.12163 -2.77311,0.17176 -6.19223,0.64903 -9.8576,1.37605 -2.69088,0.53372 -2.59938,0.53137 -2.88878,0.0743 -0.44169,-0.69759 0.81065,-1.77125 2.36955,-2.03149 0.43438,-0.0726 1.52519,-0.29716 2.42398,-0.49916 0.89877,-0.20202 2.51657,-0.46644 3.59512,-0.58759 1.07855,-0.12115 2.87435,-0.33934 3.99066,-0.48486 1.11631,-0.14552 3.11965,-0.26459 4.45186,-0.26459 2.40965,0 2.42928,-0.004 3.79498,-0.69066 0.75507,-0.37985 1.37454,-0.78095 1.37664,-0.89131 0.0136,-0.70697 -8.02985,-2.54186 -12.85153,-2.93177 -0.77894,-0.063 -2.00076,-0.19886 -2.7152,-0.30192 -0.71439,-0.10307 -3.95001,-0.21629 -7.19025,-0.2516 -9.18211,-0.10006 -11.69898,-0.54117 -15.57662,-2.72998 -2.24521,-1.26737 -6.27352,-2.93835 -8.39939,-3.48415 -4.14544,-1.06435 -9.40921,-1.07231 -14.38056,-0.0217 -2.69894,0.57036 -2.72357,0.58207 -2.72357,1.29482 0,0.35493 0.34281,1.60115 0.76178,2.76942 0.41899,1.16825 0.86414,2.67405 0.98923,3.34622 0.49344,2.65174 0.92888,4.61821 1.41246,6.37904 0.98256,3.57764 1.27818,7.09384 1.12333,13.36204 -0.0768,3.10928 -0.2363,6.05747 -0.35445,6.55151 -0.23186,0.96983 -0.97962,10.84061 -1.45364,19.18979 l -0.1497,2.63663 1.17777,-0.0263 c 4.38685,-0.0978 8.7179,0.8996 11.9632,2.755 0.53927,0.30832 1.09554,0.56092 1.23614,0.56135 0.52979,0.002 1.64879,-1.0167 3.21089,-2.92202 2.05611,-2.5079 3.01826,-4.07894 4.49681,-7.34247 1.15739,-2.55466 1.55189,-3.04116 2.19401,-2.7057 0.41201,0.21525 0.0794,2.1112 -0.68075,3.88081 -0.99398,2.31392 -3.30703,6.34576 -4.63386,8.07721 -2.83416,3.69844 -6.57498,7.05153 -12.02013,10.77426 -0.94996,0.64944 -1.62081,1.27735 -1.86943,1.74966 -0.21324,0.40519 -0.90211,1.27017 -1.53083,1.92219 l -1.1431,1.18546 0.23872,1.11673 c 0.45243,2.11626 0.49243,3.30493 0.16468,4.89324 -0.27975,1.35578 -1.46738,4.93582 -1.97572,5.95586 -0.15522,0.31143 -0.0901,0.30587 0.78794,-0.0672 0.52642,-0.2237 1.5454,-0.70093 2.26444,-1.06054 z m 0.25084,-18.00534 c -0.0709,-0.15622 -0.0158,-0.65365 0.043,-1.1724 0.0769,-0.6766 0.25314,-0.24844 -0.11683,-1.26684 -0.67634,-1.86157 -0.15717,-2.46292 -2.0809,-2.79696 -0.70494,-0.1224 -2.66837,-0.22509 -2.81814,-0.26173 -0.18205,-0.0445 0.47313,-1.97238 0.47313,-2.77641 l 0,-1.20292 -0.20572,-0.89546 c 0.68906,-0.0103 3.10362,0.82672 3.58297,0.78847 2.01305,-0.16079 6.93193,1.30991 9.31469,2.78498 1.70861,1.05776 4.68982,1.15801 -1.46716,5.72264 -3.24731,2.40749 -5.41196,4.13953 -5.72036,3.46022 z m 6.24871,-3.39476 c 2.55534,-2.07065 2.59362,-2.14018 1.58409,-2.87785 -2.45882,-1.79661 -9.10948,-3.37278 -11.28348,-2.67414 -0.39694,0.12758 -0.50012,0.29459 -0.4835,0.78271 0.0207,0.61125 0.0427,0.62467 1.4662,0.89684 1.23616,0.23636 1.60179,0.40722 2.52901,1.18175 1.30334,1.08868 1.97596,2.6612 1.97596,4.61952 l 0,1.23173 1.14281,-0.79989 c 0.6285,-0.43995 2.00954,-1.50225 3.06891,-2.36067 z m 75.49988,-0.4815 c -2.67369,-0.11669 -5.01848,-0.1057 -7.5431,-0.7337 -3.3258,-0.82732 -7.19311,-1.36228 -7.19311,-1.73508 0,-0.1662 3.28234,-1.97682 3.88713,-2.55017 1.28677,-1.21992 1.93179,-2.01206 3.76239,-4.62061 l 1.34778,-1.92052 1.14795,-1.34447 c 1.00504,-1.17709 2.67686,-1.46414 3.64987,-2.04022 2.10145,-1.24418 4.58894,-2.94122 6.17312,-5.26088 0.44968,-0.65843 1.26049,-1.36358 1.52449,-1.66747 0.26398,-0.30389 0.4564,-1.00904 0.78417,-1.66747 1.17219,-2.355 -0.54428,-3.93461 3.6711,-4.08944 2.033,-0.0747 6.08604,0.0912 6.59017,0.0337 1.0921,-0.12456 2.65369,0.39433 2.65369,0.39433 0.17316,0.23522 -0.60055,-0.28365 -4.01277,-0.20757 -4.88898,0.10902 -10.72735,-0.1971 -13.0156,-0.68244 -3.60895,-0.76547 -7.60514,-2.55756 -9.13041,-4.09458 -2.86929,-2.89135 -4.14239,-4.69744 -4.91096,-6.9669 -0.19477,-0.57506 -0.45215,-1.07233 -0.57201,-1.10505 -0.11984,-0.0327 0.75675,0.23075 0.71986,0.7194 -0.0963,1.27508 1.33664,3.24805 2.66391,4.95427 1.35604,1.74322 2.99512,2.94086 4.59941,3.73777 1.24161,0.61677 2.96872,1.0113 2.95564,1.85702 -0.009,0.60794 -1.35486,3.19647 -1.95168,4.19035 -1.19058,1.98271 -2.28301,3.05137 -6.08913,3.91654 -1.93353,0.43949 -2.11998,0.36094 -2.9958,0.79162 -2.27557,1.11902 -3.81383,1.34159 -3.50161,3.13019 0.1941,1.11185 -0.42974,1.54815 1.15007,2.7566 1.13676,0.86954 1.317,1.06697 2.67784,1.33065 0.86077,0.16676 2.25764,0.0505 2.82686,0.1098 0.78637,0.082 4.50316,-0.80189 4.50316,-0.55996 0,0.65481 -4.55509,6.13654 -6.6541,8.20433 -1.972,1.94268 -3.58178,2.83772 -4.10163,2.7276 -0.78671,-0.16666 -7.72739,-3.18645 -8.93154,-3.87153 -1.81531,-1.03276 -3.16183,-2.12013 -5.25741,-4.18123 -3.61723,-3.55777 -6.2613,-6.35363 -7.46524,-10.56267 -0.8163,-2.85386 -0.53652,-4.62018 -0.87038,-7.44065 -0.55906,-4.72286 2.04199,-2.99517 4.80462,-3.77178 0.95869,-0.26958 2.99463,-0.89801 4.5243,-1.39648 1.52967,-0.49848 3.41941,-1.03143 4.19938,-1.18433 1.46908,-0.28798 2.93327,-0.79478 2.93327,-1.01526 0,-0.0695 -0.34807,0.69879 -0.81318,0.63593 -0.63292,0.18842 -1.97016,0.54392 -3.87057,1.03534 -2.54974,0.65929 -5.81889,1.56887 -7.9799,2.29259 -0.63786,0.21362 -3.23724,1.81547 -4.235,1.66922 -0.27633,-0.14434 0.85014,-3.54048 1.43381,-5.38094 0.47622,-1.50157 -0.0501,-2.74814 1.28957,-3.96618 0.47837,-0.43492 1.61527,-0.86114 1.61527,-0.86114 -0.0451,-0.14093 0.1221,0.1515 -0.48817,0.51882 -1.226,0.73793 -3.49155,-0.0798 -2.88921,-1.29837 0.37292,-0.75441 1.9291,-0.12901 6.56824,-0.99799 3.04755,-0.57085 3.81657,-0.85863 8.4976,-0.91779 5.64112,-0.0713 5.14104,-0.72064 5.0438,-0.10141 -0.0137,0.0873 -0.79299,0.0174 -3.17757,0.25563 -2.96107,0.0254 -7.44559,0.46623 -11.84639,1.30782 -3.03773,0.58095 -4.01632,-1.03062 -2.74252,-2.85072 1.11389,-1.59161 2.19829,-3.9084 3.94173,-4.50526 l 2.43614,-0.83399 3.13234,-0.88469 c 3.41395,-0.96423 11.96041,1.95138 13.29839,2.10419 1.14232,0.13045 -0.25186,0.46425 -1.81858,0.0569 -1.60528,-0.41738 -8.56281,-0.7061 -9.628,-0.7061 -1.29763,0 -0.87036,-1.91004 0.22389,-2.37438 1.50127,-0.63707 5.93598,-1.79707 8.54492,-2.23511 0.53928,-0.0905 2.35318,-0.22057 4.03092,-0.28895 2.51322,-0.10244 3.58763,-0.0571 6.10085,0.25741 4.28453,0.53621 7.73499,1.49199 7.73499,2.14257 0,0.14452 1.21345,1.63879 0.91386,2.11506 -0.68407,1.08747 3.70172,1.7316 4.31325,2.83628 0.22431,0.40519 5.56042,-1.66883 6.4703,-0.85846 1.15289,1.02686 4.57436,-1.27353 5.98126,-0.92571 1.15878,0.27016 -0.54586,2.29675 -0.0794,3.12596 0.432,0.76789 -0.73987,0.70752 1.38104,0.80646 2.67662,0.12489 1.37478,0.0899 1.37478,0.0899 2.34151,-1.56544 -1.96401,1.9538 0.8627,-0.6712 0.69195,-0.64256 0.74517,-0.19152 0.85802,-1.94573 0.1,-1.55471 2.10236,-0.19704 2.54454,-0.0852 0.2545,0.0644 1.17311,0.003 1.64521,0.0641 1.21763,0.15806 5.97575,2.07942 7.24043,3.40187 1.12378,1.17515 1.97533,2.95063 1.97533,3.57994 0,0.47631 -1.74204,0.85312 -5.03207,1.00606 -1.40834,0.0654 -2.60837,0.18432 -2.66673,0.26414 -0.0584,0.0798 0.47655,-0.31725 0.67363,-0.17915 0.26518,0.18579 0.7575,-0.90455 2.87829,-0.21468 l 4.39991,-0.93153 0.26919,3.25198 c 0.10102,1.22037 -0.58252,3.66784 -0.83811,4.23086 -0.19337,0.42594 -1.43699,0.36956 -3.8201,-0.17315 -3.76899,-0.85835 -6.95233,-1.56145 -7.06944,-1.56145 -0.0639,0 0.99517,-0.15351 1.13726,-0.0943 0.95427,0.39759 5.63445,1.48968 8.12553,1.84141 0.51767,0.0731 3.78148,0.0574 3.84601,0.19946 0.15467,0.34075 -3.32112,5.74114 -3.82566,6.95424 -0.66579,1.60085 -0.99546,4.96105 -1.28894,4.96105 -0.66763,0 -8.48529,-5.55539 -10.38022,-7.21216 -1.79748,-1.57153 -0.86082,-1.163 1.02168,0.61077 1.38797,1.30779 4.36826,3.43106 6.61365,4.71181 1.32321,0.75474 2.73466,1.706 2.73466,2.0901 0,1.42589 -6.70506,8.7782 -9.62183,10.94104 -2.03191,1.50672 -8.81345,5.99149 -10.96648,6.93009 -1.05389,0.45944 -3.02797,1.03278 -4.46601,1.4415 -3.55439,1.01024 -6.25583,1.35564 -11.16265,1.14152 z m 6.84407,-1.9219 c 2.57573,-0.44739 3.10352,-0.5765 5.16114,-1.26255 4.88631,-1.62916 13.66474,-6.93542 16.24628,-9.82024 0.59918,-0.66957 1.63742,-1.78476 2.3072,-2.47816 1.11603,-1.15543 2.85193,-3.45473 3.79616,-5.02828 0.37735,-0.62889 0.37584,-0.63995 -0.12661,-0.92087 -0.2797,-0.15639 -1.44475,-0.87644 -2.58901,-1.6001 -4.22755,-2.67373 -6.98289,-5.13791 -6.98289,-6.24498 0,-1.03387 0.78037,-0.86537 2.43355,0.52549 0.75872,0.63831 1.86974,1.49528 2.46892,1.90439 1.54216,1.05295 6.01964,3.79104 6.08026,3.71824 0.31754,-0.38135 1.23331,-2.56956 1.52841,-3.6522 0.2071,-0.75972 0.51635,-1.88389 0.6872,-2.49814 0.468,-1.6824 0.47863,-1.66203 -0.99585,-1.90723 -1.47751,-0.24572 -4.13462,-0.91722 -6.50078,-1.6429 -1.86502,-0.57198 -3.01361,-1.28747 -2.80487,-1.74724 0.2245,-0.49456 1.33242,-0.37828 5.08145,0.53334 1.90343,0.46285 4.03965,0.88991 4.74716,0.94903 l 1.28637,0.10748 -0.12403,-1.82386 c -0.0683,-1.00311 -0.26526,-2.10229 -0.43787,-2.4426 l -0.31382,-0.61873 -2.86315,0.0292 c -2.78632,0.0284 -2.87781,0.0167 -3.40869,-0.43192 -0.67036,-0.56663 -0.68023,-0.74557 -0.0613,-1.11203 0.35274,-0.20884 1.07759,-0.29261 2.66911,-0.30849 1.20166,-0.0119 2.44765,-0.0742 2.76885,-0.13814 l 0.58402,-0.11634 -0.69296,-1.15839 c -0.38112,-0.63712 -1.14627,-1.63641 -1.70036,-2.22066 -1.20681,-1.27248 -3.72663,-2.78056 -4.96607,-2.97215 l -0.88994,-0.13757 0,0.62959 c 0,0.8123 -0.61951,3.13618 -1.00722,3.77833 -0.45823,0.75895 -3.08225,2.92756 -4.54892,3.75945 -2.83677,1.60902 -5.2309,2.07386 -9.05299,1.75773 -3.03339,-0.25092 -4.29544,-0.68635 -5.53385,-1.90931 -0.68589,-0.67731 -0.85826,-0.94145 -2.27731,-3.48936 -0.50578,-0.9081 -1.07092,-1.5284 -2.18135,-2.39428 -2.1299,-1.66077 -2.40463,-2.12365 -2.45019,-4.12809 -0.0317,-1.39819 0.0332,-1.74161 0.43318,-2.28954 0.2588,-0.35454 0.47092,-0.73563 0.47137,-0.84685 0.002,-0.59523 -4.87594,-1.7052 -9.17943,-2.08861 -1.89253,-0.16861 -2.77032,-0.15511 -4.79351,0.0738 -2.20374,0.2493 -3.0652,0.40902 -5.52715,1.02481 -0.35951,0.0899 -1.34,0.30065 -2.17887,0.46829 -0.83887,0.16763 -2.01546,0.45588 -2.61465,0.64056 l -1.08944,0.33578 0.96541,0.0119 c 0.97539,0.0121 7.02184,0.93863 9.08721,1.39255 1.6188,0.35575 2.47589,0.77405 2.47589,1.20836 0,0.66643 -0.57085,0.70866 -3.92196,0.29023 -1.2583,-0.1571 -4.55705,-0.42005 -7.33056,-0.58431 -5.93578,-0.35154 -5.60382,-0.41977 -8.01596,1.64765 -1.48531,1.27305 -3.56884,3.70454 -3.34011,3.89789 0.0612,0.0517 0.78548,-0.028 1.6095,-0.17715 3.54938,-0.64255 7.97017,-1.03832 11.42211,-1.02258 2.48959,0.0114 3.75611,0.26684 3.8728,0.7812 0.15033,0.66276 -0.31594,0.80529 -3.06448,0.93689 -4.30115,0.2059 -8.07864,0.54692 -10.41893,0.94058 -0.68611,0.1154 -0.76659,0.18714 -0.69367,0.61853 0.0623,0.36926 -0.12119,0.66727 -0.75436,1.22471 -0.81222,0.71504 -1.7149,1.88804 -2.49026,3.236 -0.33195,0.57706 -1.05959,2.84902 -1.05959,3.30839 0,0.0921 0.56378,-0.0301 1.25284,-0.2718 0.68909,-0.24161 2.5275,-0.81017 4.0854,-1.2635 5.55429,-1.61623 6.31529,-1.75898 7.92564,-1.48674 0.56533,0.0956 0.68091,0.20144 0.68091,0.62364 0,0.62373 -0.61916,0.9026 -3.26832,1.47206 -1.01862,0.21896 -2.63642,0.67098 -3.59514,1.00447 -0.95869,0.33351 -2.82162,0.91404 -4.13985,1.29011 -3.65611,1.043 -3.37725,0.71257 -3.37725,4.00206 0,2.81935 0.20536,3.93484 1.45142,7.88415 0.42449,1.34535 1.99152,4.05374 3.1619,5.46485 1.69229,2.04041 5.02932,5.06952 6.82376,6.19416 1.50018,0.94024 8.23081,3.99589 8.80163,3.99589 0.36273,0 4.36041,-4.11304 5.03032,-5.17545 0.36275,-0.57529 0.65954,-1.09655 0.65954,-1.15834 0,-0.0618 -0.26965,-0.11448 -0.59918,-0.11707 -0.32955,-0.002 -1.38815,-0.15562 -2.3524,-0.34003 -2.00266,-0.38303 -3.23667,-1.03467 -4.5115,-2.38238 -0.95302,-1.00749 -1.25135,-1.76536 -1.24641,-3.16647 0.009,-2.59662 2.31531,-4.45481 6.7485,-5.43765 4.32252,-0.95828 5.3271,-1.44524 6.41814,-3.11116 0.80033,-1.22196 1.2373,-2.35236 1.01951,-2.63744 -0.0761,-0.0997 -0.44426,-0.31362 -0.81805,-0.47546 -1.78572,-0.77309 -4.69003,-3.34395 -6.2209,-5.5067 -1.36539,-1.92893 -2.3314,-4.95228 -1.95855,-6.12976 0.14249,-0.44998 0.29012,-0.55253 0.79553,-0.55253 0.57756,0 0.65379,0.0894 1.09896,1.28923 0.2631,0.70907 0.69002,1.6945 0.94875,2.18986 0.55182,1.05652 3.1709,4.0705 4.44647,5.11685 1.71296,1.40516 5.42356,2.97187 8.69561,3.67146 1.60355,0.34286 2.64168,0.39692 9.2153,0.4799 4.50087,0.0568 7.51505,0.16668 7.68052,0.27993 0.74364,0.50894 -0.16359,1.70896 -1.41714,1.87458 -0.84221,0.11128 -4.42561,0.33104 -6.15444,0.37745 -2.7171,0.0729 -2.61133,0.0447 -2.95992,0.79004 -0.7143,1.52718 -1.30107,2.55998 -1.75259,3.08493 -0.26138,0.30389 -0.84315,1.09123 -1.29283,1.74966 -2.78178,4.07314 -6.66367,6.91052 -11.20775,8.19198 l -1.41626,0.3994 -1.03024,1.60216 c -1.32907,2.06685 -2.46414,3.46321 -3.84061,4.72466 -0.60791,0.55713 -1.10887,1.05872 -1.11318,1.11461 -0.008,0.1018 3.0922,0.97948 5.54824,1.57081 0.92914,0.2237 2.59949,0.35113 5.77402,0.44055 4.62112,0.13016 5.07289,0.11797 6.80898,-0.18356 z m -39.9245,-39.00913 c -0.14521,-0.0409 -0.42596,0.0654 -0.6239,0.23635 -0.33692,0.29089 -0.32006,0.29565 0.26399,0.0744 0.34314,-0.12999 0.50509,-0.26982 0.35991,-0.31074 z m 2.33443,-0.51126 c -0.0724,-0.0612 -0.26034,-0.0677 -0.41764,-0.0145 -0.17379,0.0588 -0.12217,0.10243 0.13165,0.11128 0.2297,0.008 0.35839,-0.0355 0.28599,-0.0967 z m 20.47381,28.83025 c -1.65381,-0.21064 -3.59733,-1.09671 -4.29115,-1.95637 -0.44785,-0.55488 -0.5396,-0.87711 -0.51591,-1.81195 0.0569,-2.2429 0.87192,-2.92993 4.99294,-4.2086 1.43238,-0.44444 3.09135,-0.98828 3.68662,-1.20854 2.39082,-0.88468 4.00949,-2.54993 4.64565,-4.77937 0.20508,-0.71871 0.4419,-1.30733 0.52623,-1.30804 0.0844,0 -0.0696,-1.96775 1.04443,-1.6588 1.11404,0.30897 5.09945,1.55004 6.71727,1.75333 1.6178,0.20332 3.82766,0.21401 3.92034,0.29163 0.30616,0.25641 -2.79374,4.63916 -4.71214,7.0474 -1.9538,2.45266 -4.24126,4.49163 -6.45709,5.75566 -0.60608,0.34572 -2.08243,0.9498 -3.28081,1.34238 -2.40807,0.78886 -4.22134,1.00302 -6.27638,0.74127 z m 4.86104,-0.79226 c 2.23861,-0.69005 2.93079,-0.96144 4.17346,-1.6362 1.63064,-0.88542 4.42467,-3.14185 5.39994,-4.3609 0.4513,-0.56413 1.2895,-1.60586 1.86263,-2.31494 1.41196,-1.74689 2.4,-3.60292 2.02505,-3.80402 -0.15389,-0.0826 -0.34571,-0.15138 -0.42622,-0.15293 -0.90649,-0.0175 -5.68566,-0.8408 -6.88945,-1.18688 l -1.56173,-0.44898 -0.23259,0.77048 c -0.99037,3.28106 -2.92503,4.78982 -7.83823,6.11266 -0.65908,0.17748 -2.01496,0.64895 -3.01303,1.04774 -1.60842,0.64268 -1.86165,0.81264 -2.22853,1.49569 -0.57274,1.06632 -0.5464,2.25361 0.0667,3.01088 1.38396,1.70922 5.57455,2.41912 8.66197,1.4674 z m 43.57693,-8.09747 c -0.65887,-0.23164 -1.71476,-0.4186 -1.75221,-0.58291 -0.0988,-0.43369 0.11259,-2.44223 0.50138,-2.44223 0.54624,0 2.40124,1.35605 3.20607,2.06376 0.61408,0.53999 0.71296,0.72584 0.52276,0.98263 -0.3424,0.4623 -1.12151,0.45561 -2.478,-0.0212 z m 1.11546,-0.86673 c -0.52472,-0.40104 -1.03604,-0.72915 -1.13624,-0.72915 -0.18359,0 -0.73073,0.73747 -0.59649,0.804 0.30294,0.15015 2.09879,0.64349 2.35993,0.64829 0.17995,0.003 -0.10194,-0.3217 -0.6272,-0.72314 z m -0.30106,-10.45485 c -0.0498,-0.13469 0.40206,-1.70999 0.33073,-2.29515 -0.15501,-1.27122 0.93104,-0.0786 2.5802,0.22035 1.74792,0.31685 2.59296,0.71679 2.59296,1.22716 0,0.53085 -0.67612,0.92773 -1.85203,1.0871 -0.47936,0.065 -1.14129,0.16058 -1.47092,0.21246 -0.38788,0.0611 -2.12232,-0.29346 -2.18094,-0.45192 z m 4.16382,-0.42188 c 0.37723,-0.11117 0.63029,-0.27817 0.5623,-0.37115 -0.14173,-0.19385 -1.22921,-0.59673 -2.10924,-0.78141 -0.57895,-0.12149 -0.59918,-0.10073 -0.59918,0.61446 0,0.7169 0.0231,0.74021 0.73009,0.74021 0.40155,0 1.03876,-0.091 1.41603,-0.20211 z m -3.36321,-6.57399 c -0.42361,-0.2372 -1.77094,-2.58837 -1.60964,-2.80893 0.35251,-0.48216 3.40543,0.30888 4.23384,1.09702 0.32794,0.31199 0.37303,0.4779 0.19488,0.71738 -0.45391,0.61023 -2.32599,1.27066 -2.81908,0.99453 z m 2.05797,-1.0561 c 0.2274,-0.19225 -0.73262,-0.82098 -1.66246,-1.08878 -0.54745,-0.1577 -1.0232,-0.26324 -1.05715,-0.23453 -0.034,0.0288 0.18966,0.48156 0.49694,1.00634 l 0.55862,0.95418 0.78171,-0.27608 c 0.42993,-0.15183 0.82696,-0.31435 0.88234,-0.36113 z m -19.53195,-3.68993 c -2.76641,-0.30589 -1.4861,-3.2549 0.0891,-4.30228 0.50051,-0.33279 0.79239,-0.39291 1.46557,-0.30192 2.21832,0.29983 2.9789,1.4244 2.31983,3.42989 -0.38697,1.1774 -2.44081,1.33283 -3.87454,1.17431 z m 1.98388,-0.33159 c 1.14797,-0.40545 1.45509,-0.77974 1.45509,-1.77333 0,-1.16593 -0.13805,-1.43097 -0.92442,-1.77469 -1.30211,-0.56918 -2.76673,0.0969 -3.10893,1.41383 -0.18096,0.69641 0.45626,1.83752 1.20081,2.15049 0.66788,0.28071 0.53191,0.28232 1.37745,-0.0163 z m -2.30619,-3.59346 c -0.97272,0.88638 -5.35916,2.56127 -7.65486,1.93027 -1.60815,-0.44202 -5.76202,-4.58492 -6.06164,-4.65226 -0.73911,-0.16617 6.76909,-3.89602 7.75877,-6.32614 1.17322,-2.88072 1.44705,-4.28658 1.57634,-8.09273 0.0639,-1.88003 0.21803,-3.64594 0.3426,-3.92427 0.27856,-0.62249 2.36527,-1.83184 3.90821,-2.26503 1.22286,-0.34333 3.12674,-0.2922 4.78824,0.12858 1.33183,0.33728 2.87354,1.6052 3.48889,2.86931 0.49135,1.00932 0.51688,1.26487 0.51124,5.11427 -0.007,4.28517 -0.1707,5.25418 -1.40411,8.2758 -0.85733,2.10021 -2.73915,6.73897 -3.41661,6.73245 -0.20361,-0.002 -3.08607,-0.47457 -3.83707,0.20975 z m 4.73628,-3.77942 c 1.31178,-1.7334 2.32266,-3.87577 3.09428,-6.55794 0.31516,-1.09542 0.39742,-2.12462 0.39742,-4.97272 0,-3.35871 -0.0335,-3.66027 -0.5172,-4.65384 -0.76458,-1.57062 -2.20307,-2.59923 -4.16146,-2.97574 -1.84624,-0.35496 -1.84678,-0.35496 -3.21274,-0.0122 -1.47677,0.3707 -3.653,1.61573 -3.94156,2.25495 -0.12563,0.27834 -0.27822,2.03931 -0.33907,3.91329 -0.13074,4.02583 -0.30477,4.9861 -1.40663,7.76207 -0.45657,1.15023 -0.8728,2.20964 -0.92497,2.35428 -0.0578,0.16028 0.11788,0.31519 0.4499,0.39669 5.07997,1.2469 6.81113,1.83729 8.31084,2.83423 0.52214,0.3471 1.07315,0.63537 1.22442,0.64058 0.1513,0.005 0.61333,-0.43749 1.02677,-0.98378 z m -2.58613,-11.13806 c -1.94077,-0.35804 -2.20574,-3.38157 -0.42425,-4.84111 0.67478,-0.55281 0.8801,-0.61619 1.993,-0.61516 2.29288,0.002 3.34382,0.8318 3.48858,2.75401 0.10151,1.34711 -0.37421,2.25856 -1.38118,2.64638 -0.58514,0.22536 -2.59208,0.25588 -3.67615,0.0558 z m 2.16222,-3.36178 c 0.57471,-0.2751 -0.41498,0.98088 -0.80689,0.60172 -0.54223,-0.5246 0.16402,0.1497 -0.43151,0.3452 -0.26518,0.17008 -0.58393,-1.21809 -0.20328,-1.03603 0.81505,0.38981 0.6214,0.47389 1.44168,0.0891 z m -23.13415,14.52833 c -2.08699,-0.60742 -5.53138,-1.31434 -8.86149,-1.73593 -1.08814,-0.13775 0.86377,-1.6916 0.84814,-5.67928 -0.0134,-3.37215 0.0125,-3.58619 0.70508,-5.88862 1.27552,-4.2399 2.40781,-6.13732 4.82583,-8.08687 1.56029,-1.25802 2.58813,-1.66853 4.92827,-1.9684 1.95918,-0.25103 4.35371,-0.0535 5.96718,0.49215 1.03962,0.35162 3.04409,2.13597 3.67198,3.2688 1.13403,2.04589 2.62793,2.59569 2.59443,5.38595 -0.052,4.32923 -0.34062,6.6887 -1.75591,9.15626 -1.28765,2.24502 -2.12843,4.70056 -3.93829,4.86401 -1.05548,0.0953 3.66665,6.8134 2.53424,7.26166 -0.91175,0.36093 -10.3784,-0.91587 -10.69725,-0.92862 -0.31887,-0.0127 0.4877,-5.75985 -0.82221,-6.14111 z m 4.50457,-2.00697 c 1.29602,-0.55988 2.14327,-0.7949 3.1986,-0.88722 1.696,-0.14837 2.07523,-0.44246 3.23171,-2.50603 1.44298,-2.57482 2.37547,-8.68086 1.74215,-11.40794 -0.54152,-2.33186 -2.96667,-5.16374 -4.88278,-5.70169 -1.96684,-0.55222 -3.42146,-0.65774 -5.28198,-0.3832 -2.36884,0.34957 -3.40812,0.82472 -5.07953,2.3224 -1.96356,1.7594 -3.0064,3.57663 -4.11394,7.16872 -0.86012,2.78971 -0.88025,2.926 -0.87122,5.89463 0.005,1.67138 0.10266,3.28753 0.21678,3.59142 0.22385,0.59604 0.0337,0.54054 3.55437,1.03739 0.89879,0.12683 2.66366,0.53723 3.92196,0.91201 1.25829,0.37476 2.35825,0.69033 2.44434,0.70125 0.0861,0.0109 0.94991,-0.32285 1.91954,-0.74174 z m 1.61601,-10.85399 c -1.14205,-0.28056 -1.69132,-0.95276 -1.79809,-2.20048 -0.0553,-0.64677 0.0177,-1.33166 0.17657,-1.6559 0.36253,-0.73981 1.47589,-1.53978 2.68721,-1.93081 2.04917,-0.6615 3.60846,0.35695 3.94496,2.5767 0.11383,0.7506 0.0474,1.07383 -0.3596,1.74817 -0.88575,1.46789 -2.52735,1.98402 -4.65105,1.46232 z m 1.7809,-2.2031 c 0,0 -0.20705,0.4028 -0.24813,-0.48352 -0.0396,-0.854 0.7209,0.42669 0.12881,0.15885 -1.10312,-0.49902 0.0347,-0.26114 -0.31167,-0.0769 -0.31387,0.16695 0.24454,-0.30893 0.24454,-0.30893 0.13029,1.00108 0.0511,-0.18151 0.25579,0.13144 0,0 -0.35676,0.79157 -0.0693,0.57903 z m -31.19392,12.69807 c -1.063,-0.92849 -1.98663,-1.332 -3.75468,-1.64023 -0.75251,-0.13121 -1.41848,-0.30734 -1.47994,-0.3914 -0.0615,-0.0841 0.14298,-0.60799 0.45432,-1.16428 0.56471,-1.009 2.03102,-2.25092 4.21768,-3.57224 l 0.95236,-0.57546 -0.62551,-0.21648 c -0.34403,-0.11905 -1.40894,-0.26585 -2.36643,-0.3262 -2.00434,-0.12635 -2.13734,-0.26299 -1.48883,-1.52962 1.27027,-2.48111 3.33702,-5.14374 5.80895,-7.48382 1.70234,-1.61155 1.88747,-1.96686 1.88747,-3.62257 0,-0.81117 -0.12764,-1.12613 -0.78249,-1.93085 -0.52027,-0.63929 -2.55721,-2.91356 -2.41275,-3.03567 0.25045,-0.21171 3.20378,0.50321 5.10221,1.09894 2.98652,0.9372 6.65953,2.22425 8.37219,3.66878 1.89488,1.59819 1.37731,2.62485 0.63879,1.16851 -0.29565,-0.58303 -0.78619,-1.07191 -1.5905,-1.58523 -1.11737,-0.71309 -1.88881,-1.04742 -5.74281,-2.4889 -2.32582,-0.86993 -6.69274,-1.92186 -9.20677,-2.21777 -2.85451,-0.33601 -3.20579,-0.76582 -1.06852,-1.30746 3.23375,-0.81951 12.56368,-3.04329 19.28168,-3.04329 7.23075,0 11.54437,1.54373 13.42101,3.51476 0.58467,0.61404 0.77799,2.60234 0.84806,3.77472 0.11202,1.87546 -1.60938,1.93602 -3.19293,1.93602 -2.41535,0 -4.68399,0.8504 -6.32915,2.10671 -1.474,1.12565 -3.18829,3.98472 -4.06854,6.01306 -1.00425,2.3141 -1.39768,3.33927 -1.42395,7.91034 -0.0234,4.07804 -0.46173,5.4701 -0.87626,5.50006 -0.23682,0.0171 -2.82465,-0.0623 -4.56231,0.0579 -1.82506,0.12629 -4.10203,0.49851 -5.65743,0.80642 -1.48092,0.29315 -2.46924,0.396 -2.67172,0.396 -0.20246,0 -1.20948,-1.40704 -1.6832,-1.82081 z m 2.84349,0.009 c 2.73583,-0.67233 4.30898,-0.88791 7.40746,-1.01507 2.06668,-0.0848 3.12316,-0.20148 3.27596,-0.36177 0.14203,-0.14902 0.1709,-0.77192 0.0779,-1.68287 -0.16289,-1.59643 0.1054,-6.1272 0.46649,-7.87778 0.40333,-1.95554 1.28437,-3.88907 2.66475,-5.8481 2.56419,-3.63905 4.92292,-5.03469 9.32988,-5.52042 1.12845,-0.12437 2.12376,-0.3142 2.2118,-0.42183 0.27165,-0.33207 0.18334,-1.75267 -0.14149,-2.27681 -0.33941,-0.5476 -1.45824,-1.47274 -2.30641,-1.90708 -1.50252,-0.76943 -4.31061,-1.20194 -8.93337,-1.37594 -4.28007,-0.1611 -12.93242,0.36526 -16.7773,1.02062 -0.53928,0.0919 -1.55456,0.2652 -2.25617,0.38506 -0.70165,0.11987 -1.19191,0.27855 -1.08944,0.35263 0.10241,0.0741 1.01966,0.23143 2.03828,0.34964 4.0812,0.47369 11.7003,2.89214 14.39605,4.56961 2.0825,1.29585 2.85751,3.23125 1.45931,3.64429 -0.55774,0.16477 -0.69744,0.0827 -2.22586,-1.30796 -0.89689,-0.81607 -1.95275,-1.61162 -2.34635,-1.7679 -2.84051,-1.12784 -3.90872,-1.47729 -5.02299,-1.64319 -0.69901,-0.10408 -1.32333,-0.14492 -1.3874,-0.0908 -0.0641,0.0541 0.0388,0.3751 0.22865,0.71323 0.18982,0.33813 0.38518,1.26313 0.43414,2.05557 l 0.089,1.44078 -1.35379,1.2285 c -2.21255,2.00775 -2.29424,2.09054 -3.5345,3.58245 -1.57386,1.89322 -2.41381,3.11361 -2.92377,4.248 -0.50375,1.12073 -0.39662,1.21868 1.33791,1.22268 1.28833,0.003 2.50725,0.26701 2.99308,0.6483 0.42341,0.33233 -0.0452,0.89442 -1.32798,1.59286 -1.26853,0.6907 -3.86595,3.02554 -3.86595,3.47515 0,0.24348 0.29365,0.38598 1.14391,0.55511 1.57197,0.31269 2.51774,0.75079 3.53041,1.63535 0.47373,0.41376 0.86624,0.7523 0.87225,0.7523 0.006,0 0.69696,-0.1686 1.53547,-0.37465 z m -28.86534,-1.69045 c -3.17571,-0.056 -6.52707,-0.51567 -6.65518,-0.58628 -0.12809,-0.0706 1.04477,-1.63641 1.02172,-2.17357 -0.17416,-4.05873 -0.72308,-7.98511 -1.26951,-9.08038 l -0.27565,-0.55253 0.77063,1.05558 c -0.004,0.35454 0.18103,0.67601 0.29228,1.25018 0.34602,1.78541 0.66001,6.14417 0.74953,6.83528 l 0.37456,2.89124 -3.33161,-0.39643 c -2.14839,-0.25564 -5.13829,-1.81174 -6.6228,-2.51452 -0.60764,-0.28767 -2.21143,-1.1523 -3.56401,-1.92143 -1.35255,-0.76912 -3.51911,-1.83675 -3.62614,-1.83675 -0.98632,0 3.03969,-6.38209 6.14409,-11.11288 2.54801,-3.88288 5.12853,-7.03566 7.47695,-9.13494 3.4094,-3.04775 7.41007,-4.16352 10.11175,-2.82012 1.12883,0.56128 1.54848,0.95039 2.97202,2.75566 1.29864,1.64692 1.83639,2.70513 3.15097,6.20079 1.1168,2.96971 1.18992,3.35419 1.41249,7.42547 0.16969,3.10382 0.049,4.94472 -0.64229,9.79493 -0.39465,2.76896 -0.12298,4.04581 -1.04087,4.00402 -0.43988,-0.02 -2.87944,-0.24657 -6.05516,-0.30251 z m 7.69721,-2.21707 c 0.51068,-2.44431 1.01416,-7.4211 1.01346,-10.01803 -0.002,-4.49565 -0.72535,-7.57749 -2.78509,-11.85279 -1.07688,-2.23524 -3.07667,-4.71936 -4.36028,-5.41632 -1.43981,-0.78178 -2.25579,-0.90731 -3.76842,-0.57975 -1.85695,0.40211 -2.47239,0.68168 -4.26334,1.93648 -4.80703,3.36805 -10.82666,11.94991 -14.26944,20.34312 -0.23888,0.58236 -0.24196,0.73595 -0.0158,0.80013 0.15381,0.0437 1.37252,0.70088 2.70824,1.46044 3.53243,2.00867 4.43617,2.39785 6.49358,2.79625 2.87267,0.55627 4.02565,0.63509 4.35685,0.29778 0.35908,-0.36573 0.17949,-4.43524 -0.32848,-7.44332 -0.39559,-2.34241 -0.32555,-2.96012 0.33559,-2.96012 0.81955,0 1.42673,2.12057 1.73708,6.06639 0.18642,2.37043 0.4395,4.74454 0.51486,4.82972 0.0144,0.0164 2.67365,0.0829 5.90927,0.14777 3.23563,0.0649 6.04363,0.13439 6.24001,0.15441 0.24568,0.025 0.39608,-0.15033 0.48213,-0.56216 z m 53.79953,-12.51736 c -1.10968,-1.89834 -2.39559,-3.5604 -3.43792,-3.73585 l -3.65276,-0.6149 1.8661,-2.51783 c -0.07,-2.15083 -0.51955,-3.22804 -1.72018,-4.12137 -1.33507,-0.99333 -3.80837,-1.77456 -6.98872,-2.2075 -0.97577,-0.13283 -1.46633,-0.31957 -2.07413,-0.78949 -1.23957,-0.9584 -3.02737,-1.79617 -5.23331,-2.45236 -2.69081,-0.80041 -2.71639,-1.07743 -0.16997,-1.83969 1.83435,-0.54912 1.89568,-0.55441 6.42766,-0.55445 4.24153,-4e-5 4.76126,0.0372 7.11813,0.50982 3.34377,0.67056 5.01953,1.16957 7.91608,2.35718 2.11732,0.86813 2.62703,1.1767 4.3717,2.64676 1.83643,1.54734 2.07626,1.83963 3.41947,4.16786 1.50339,2.6059 2.48461,5.05052 2.35121,6.63225 l -0.23126,1.36799 -1.06873,0.2753 c -0.63423,0.16338 -1.51075,0.0283 -2.16986,0.26216 -1.31283,0.46581 -3.4113,1.35942 -3.5995,1.77396 -0.25116,0.55329 -0.19862,3.47219 -0.95238,2.18271 z m 3.01998,-1.13486 c 1.01615,-0.7352 3.7147,-1.73343 5.129,-1.89729 l 1.00198,-0.11609 -0.11436,-1.41032 c -0.0919,-1.13372 -0.26853,-1.66909 -0.90037,-2.72967 -0.43231,-0.72562 -0.78602,-1.39685 -0.78602,-1.49162 0,-0.0947 -0.40268,-0.78057 -0.89485,-1.52404 -1.21402,-1.83391 -2.95143,-3.29847 -5.31495,-4.4802 -3.85912,-1.92951 -5.91692,-2.53592 -11.54802,-3.40311 -3.44198,-0.53008 -8.17494,-0.35436 -10.7342,0.39852 l -1.365,0.40157 1.91449,0.57779 c 2.11138,0.63723 2.59387,0.86371 4.53711,2.12966 0.91076,0.59332 1.62576,0.90381 2.28782,0.99346 3.2809,0.44432 6.38298,1.47795 7.54307,2.5134 0.99841,0.89115 1.3878,1.82968 1.53025,3.68825 l 0.125,1.63096 1.5818,0.6431 c 1.24057,0.50439 1.82441,0.88854 2.70653,1.78088 0.61862,0.6258 1.36468,1.53802 1.65791,2.02719 0.29325,0.48915 0.58949,0.88937 0.65829,0.88937 0.0689,0 0.51185,-0.27981 0.98452,-0.62181 z m -39.90089,18.49056 c 0,-0.0992 -0.41671,-0.35806 -0.92603,-0.57516 -1.02145,-0.43541 -0.99206,-0.34375 0.0988,0.30821 0.84339,0.50407 0.82725,0.49886 0.82725,0.26695 z m -2.39676,-1.20088 c -0.29959,-0.14476 -0.41496,-0.36394 -0.5334,-0.37944 -1.46497,-0.19179 -0.20198,0.23468 0.0976,0.37944 0.29959,0.14476 1.12896,0.4139 1.24879,0.4139 0.11985,0 -0.51341,-0.26914 -0.81302,-0.4139 z m -2.23786,-0.75589 c -0.0724,-0.0612 -0.26034,-0.0677 -0.41762,-0.0146 -0.17382,0.0588 -0.12219,0.10243 0.13165,0.11127 0.22967,0.008 0.35838,-0.0355 0.28597,-0.0967 z"
         id="path3367" />
      <path
         style="fill:#ffffff;fill-opacity:1;fill-rule:nonzero;stroke:none;stroke-width:0.71428573;stroke-opacity:1"
         d="m 172.77805,623.48867 c -0.47143,-0.47143 -1.42535,-2.10347 -1.42535,-3.3181 0,-7.10253 23.46424,-20.28259 42.80457,-23.57927 9.3798,-1.59884 18.20063,-1.49607 29.37079,2.18818 11.16708,3.68324 16.88917,5.05496 27.24323,5.05838 6.57032,0.002 11.08337,-0.1995 14.48828,-0.99178 l 5.35998,-1.2472 -0.42645,1.69911 c -0.91471,3.6445 -1.85625,5.33354 -2.97315,5.33354 -0.64069,0 -2.38815,1.47392 -3.88325,2.65806 -3.72862,2.95312 -6.81328,4.18505 -13.74767,5.24659 -7.53743,1.15385 -12.95771,0.13115 -23.05553,-3.65427 -3.93432,-1.47488 -11.75751,-3.81102 -13.91247,-4.34261 -4.97448,-1.22711 -16.96011,-0.74452 -22.48584,0.76024 -6.46632,1.76091 -14.5253,5.89186 -25.98663,12.26961 -6.47031,3.60046 -8.3369,4.32178 -11.18111,2.04578 z"
         id="path4221" />
    </g>
  </g>
</svg>
